<?xml version="1.0" encoding="utf-8" standalone="no"?>
<!DOCTYPE svg PUBLIC "-//W3C//DTD SVG 1.1//EN"
  "http://www.w3.org/Graphics/SVG/1.1/DTD/svg11.dtd">
<!-- Created with matplotlib (https://matplotlib.org/) -->
<svg height="345.6pt" version="1.1" viewBox="0 0 460.8 345.6" width="460.8pt" xmlns="http://www.w3.org/2000/svg" xmlns:xlink="http://www.w3.org/1999/xlink">
 <defs>
  <style type="text/css">
*{stroke-linecap:butt;stroke-linejoin:round;}
  </style>
 </defs>
 <g id="figure_1">
  <g id="patch_1">
   <path d="M 0 345.6 
L 460.8 345.6 
L 460.8 0 
L 0 0 
z
" style="fill:#ffffff;"/>
  </g>
  <g id="axes_1">
   <g id="patch_2">
    <path d="M 57.6 307.584 
L 414.72 307.584 
L 414.72 41.472 
L 57.6 41.472 
z
" style="fill:#ffffff;"/>
   </g>
   <g id="matplotlib.axis_1">
    <g id="xtick_1">
     <g id="line2d_1">
      <defs>
       <path d="M 0 0 
L 0 3.5 
" id="m83a0eedbd0" style="stroke:#000000;stroke-width:0.8;"/>
      </defs>
      <g>
       <use style="stroke:#000000;stroke-width:0.8;" x="80.777711" xlink:href="#m83a0eedbd0" y="307.584"/>
      </g>
     </g>
     <g id="text_1">
      <!-- −40 -->
      <defs>
       <path d="M 10.59375 35.5 
L 73.1875 35.5 
L 73.1875 27.203125 
L 10.59375 27.203125 
z
" id="DejaVuSans-8722"/>
       <path d="M 37.796875 64.3125 
L 12.890625 25.390625 
L 37.796875 25.390625 
z
M 35.203125 72.90625 
L 47.609375 72.90625 
L 47.609375 25.390625 
L 58.015625 25.390625 
L 58.015625 17.1875 
L 47.609375 17.1875 
L 47.609375 0 
L 37.796875 0 
L 37.796875 17.1875 
L 4.890625 17.1875 
L 4.890625 26.703125 
z
" id="DejaVuSans-52"/>
       <path d="M 31.78125 66.40625 
Q 24.171875 66.40625 20.328125 58.90625 
Q 16.5 51.421875 16.5 36.375 
Q 16.5 21.390625 20.328125 13.890625 
Q 24.171875 6.390625 31.78125 6.390625 
Q 39.453125 6.390625 43.28125 13.890625 
Q 47.125 21.390625 47.125 36.375 
Q 47.125 51.421875 43.28125 58.90625 
Q 39.453125 66.40625 31.78125 66.40625 
z
M 31.78125 74.21875 
Q 44.046875 74.21875 50.515625 64.515625 
Q 56.984375 54.828125 56.984375 36.375 
Q 56.984375 17.96875 50.515625 8.265625 
Q 44.046875 -1.421875 31.78125 -1.421875 
Q 19.53125 -1.421875 13.0625 8.265625 
Q 6.59375 17.96875 6.59375 36.375 
Q 6.59375 54.828125 13.0625 64.515625 
Q 19.53125 74.21875 31.78125 74.21875 
z
" id="DejaVuSans-48"/>
      </defs>
      <g transform="translate(70.225368 322.182437)scale(0.1 -0.1)">
       <use xlink:href="#DejaVuSans-8722"/>
       <use x="83.789062" xlink:href="#DejaVuSans-52"/>
       <use x="147.412109" xlink:href="#DejaVuSans-48"/>
      </g>
     </g>
    </g>
    <g id="xtick_2">
     <g id="line2d_2">
      <g>
       <use style="stroke:#000000;stroke-width:0.8;" x="148.446698" xlink:href="#m83a0eedbd0" y="307.584"/>
      </g>
     </g>
     <g id="text_2">
      <!-- −20 -->
      <defs>
       <path d="M 19.1875 8.296875 
L 53.609375 8.296875 
L 53.609375 0 
L 7.328125 0 
L 7.328125 8.296875 
Q 12.9375 14.109375 22.625 23.890625 
Q 32.328125 33.6875 34.8125 36.53125 
Q 39.546875 41.84375 41.421875 45.53125 
Q 43.3125 49.21875 43.3125 52.78125 
Q 43.3125 58.59375 39.234375 62.25 
Q 35.15625 65.921875 28.609375 65.921875 
Q 23.96875 65.921875 18.8125 64.3125 
Q 13.671875 62.703125 7.8125 59.421875 
L 7.8125 69.390625 
Q 13.765625 71.78125 18.9375 73 
Q 24.125 74.21875 28.421875 74.21875 
Q 39.75 74.21875 46.484375 68.546875 
Q 53.21875 62.890625 53.21875 53.421875 
Q 53.21875 48.921875 51.53125 44.890625 
Q 49.859375 40.875 45.40625 35.40625 
Q 44.1875 33.984375 37.640625 27.21875 
Q 31.109375 20.453125 19.1875 8.296875 
z
" id="DejaVuSans-50"/>
      </defs>
      <g transform="translate(137.894355 322.182437)scale(0.1 -0.1)">
       <use xlink:href="#DejaVuSans-8722"/>
       <use x="83.789062" xlink:href="#DejaVuSans-50"/>
       <use x="147.412109" xlink:href="#DejaVuSans-48"/>
      </g>
     </g>
    </g>
    <g id="xtick_3">
     <g id="line2d_3">
      <g>
       <use style="stroke:#000000;stroke-width:0.8;" x="216.115685" xlink:href="#m83a0eedbd0" y="307.584"/>
      </g>
     </g>
     <g id="text_3">
      <!-- 0 -->
      <g transform="translate(212.934435 322.182437)scale(0.1 -0.1)">
       <use xlink:href="#DejaVuSans-48"/>
      </g>
     </g>
    </g>
    <g id="xtick_4">
     <g id="line2d_4">
      <g>
       <use style="stroke:#000000;stroke-width:0.8;" x="283.784672" xlink:href="#m83a0eedbd0" y="307.584"/>
      </g>
     </g>
     <g id="text_4">
      <!-- 20 -->
      <g transform="translate(277.422172 322.182437)scale(0.1 -0.1)">
       <use xlink:href="#DejaVuSans-50"/>
       <use x="63.623047" xlink:href="#DejaVuSans-48"/>
      </g>
     </g>
    </g>
    <g id="xtick_5">
     <g id="line2d_5">
      <g>
       <use style="stroke:#000000;stroke-width:0.8;" x="351.453659" xlink:href="#m83a0eedbd0" y="307.584"/>
      </g>
     </g>
     <g id="text_5">
      <!-- 40 -->
      <g transform="translate(345.091159 322.182437)scale(0.1 -0.1)">
       <use xlink:href="#DejaVuSans-52"/>
       <use x="63.623047" xlink:href="#DejaVuSans-48"/>
      </g>
     </g>
    </g>
    <g id="text_6">
     <!-- Outputs -->
     <defs>
      <path d="M 39.40625 66.21875 
Q 28.65625 66.21875 22.328125 58.203125 
Q 16.015625 50.203125 16.015625 36.375 
Q 16.015625 22.609375 22.328125 14.59375 
Q 28.65625 6.59375 39.40625 6.59375 
Q 50.140625 6.59375 56.421875 14.59375 
Q 62.703125 22.609375 62.703125 36.375 
Q 62.703125 50.203125 56.421875 58.203125 
Q 50.140625 66.21875 39.40625 66.21875 
z
M 39.40625 74.21875 
Q 54.734375 74.21875 63.90625 63.9375 
Q 73.09375 53.65625 73.09375 36.375 
Q 73.09375 19.140625 63.90625 8.859375 
Q 54.734375 -1.421875 39.40625 -1.421875 
Q 24.03125 -1.421875 14.8125 8.828125 
Q 5.609375 19.09375 5.609375 36.375 
Q 5.609375 53.65625 14.8125 63.9375 
Q 24.03125 74.21875 39.40625 74.21875 
z
" id="DejaVuSans-79"/>
      <path d="M 8.5 21.578125 
L 8.5 54.6875 
L 17.484375 54.6875 
L 17.484375 21.921875 
Q 17.484375 14.15625 20.5 10.265625 
Q 23.53125 6.390625 29.59375 6.390625 
Q 36.859375 6.390625 41.078125 11.03125 
Q 45.3125 15.671875 45.3125 23.6875 
L 45.3125 54.6875 
L 54.296875 54.6875 
L 54.296875 0 
L 45.3125 0 
L 45.3125 8.40625 
Q 42.046875 3.421875 37.71875 1 
Q 33.40625 -1.421875 27.6875 -1.421875 
Q 18.265625 -1.421875 13.375 4.4375 
Q 8.5 10.296875 8.5 21.578125 
z
M 31.109375 56 
z
" id="DejaVuSans-117"/>
      <path d="M 18.3125 70.21875 
L 18.3125 54.6875 
L 36.8125 54.6875 
L 36.8125 47.703125 
L 18.3125 47.703125 
L 18.3125 18.015625 
Q 18.3125 11.328125 20.140625 9.421875 
Q 21.96875 7.515625 27.59375 7.515625 
L 36.8125 7.515625 
L 36.8125 0 
L 27.59375 0 
Q 17.1875 0 13.234375 3.875 
Q 9.28125 7.765625 9.28125 18.015625 
L 9.28125 47.703125 
L 2.6875 47.703125 
L 2.6875 54.6875 
L 9.28125 54.6875 
L 9.28125 70.21875 
z
" id="DejaVuSans-116"/>
      <path d="M 18.109375 8.203125 
L 18.109375 -20.796875 
L 9.078125 -20.796875 
L 9.078125 54.6875 
L 18.109375 54.6875 
L 18.109375 46.390625 
Q 20.953125 51.265625 25.265625 53.625 
Q 29.59375 56 35.59375 56 
Q 45.5625 56 51.78125 48.09375 
Q 58.015625 40.1875 58.015625 27.296875 
Q 58.015625 14.40625 51.78125 6.484375 
Q 45.5625 -1.421875 35.59375 -1.421875 
Q 29.59375 -1.421875 25.265625 0.953125 
Q 20.953125 3.328125 18.109375 8.203125 
z
M 48.6875 27.296875 
Q 48.6875 37.203125 44.609375 42.84375 
Q 40.53125 48.484375 33.40625 48.484375 
Q 26.265625 48.484375 22.1875 42.84375 
Q 18.109375 37.203125 18.109375 27.296875 
Q 18.109375 17.390625 22.1875 11.75 
Q 26.265625 6.109375 33.40625 6.109375 
Q 40.53125 6.109375 44.609375 11.75 
Q 48.6875 17.390625 48.6875 27.296875 
z
" id="DejaVuSans-112"/>
      <path d="M 44.28125 53.078125 
L 44.28125 44.578125 
Q 40.484375 46.53125 36.375 47.5 
Q 32.28125 48.484375 27.875 48.484375 
Q 21.1875 48.484375 17.84375 46.4375 
Q 14.5 44.390625 14.5 40.28125 
Q 14.5 37.15625 16.890625 35.375 
Q 19.28125 33.59375 26.515625 31.984375 
L 29.59375 31.296875 
Q 39.15625 29.25 43.1875 25.515625 
Q 47.21875 21.78125 47.21875 15.09375 
Q 47.21875 7.46875 41.1875 3.015625 
Q 35.15625 -1.421875 24.609375 -1.421875 
Q 20.21875 -1.421875 15.453125 -0.5625 
Q 10.6875 0.296875 5.421875 2 
L 5.421875 11.28125 
Q 10.40625 8.6875 15.234375 7.390625 
Q 20.0625 6.109375 24.8125 6.109375 
Q 31.15625 6.109375 34.5625 8.28125 
Q 37.984375 10.453125 37.984375 14.40625 
Q 37.984375 18.0625 35.515625 20.015625 
Q 33.0625 21.96875 24.703125 23.78125 
L 21.578125 24.515625 
Q 13.234375 26.265625 9.515625 29.90625 
Q 5.8125 33.546875 5.8125 39.890625 
Q 5.8125 47.609375 11.28125 51.796875 
Q 16.75 56 26.8125 56 
Q 31.78125 56 36.171875 55.265625 
Q 40.578125 54.546875 44.28125 53.078125 
z
" id="DejaVuSans-115"/>
     </defs>
     <g transform="translate(216.187344 335.860562)scale(0.1 -0.1)">
      <use xlink:href="#DejaVuSans-79"/>
      <use x="78.710938" xlink:href="#DejaVuSans-117"/>
      <use x="142.089844" xlink:href="#DejaVuSans-116"/>
      <use x="181.298828" xlink:href="#DejaVuSans-112"/>
      <use x="244.775391" xlink:href="#DejaVuSans-117"/>
      <use x="308.154297" xlink:href="#DejaVuSans-116"/>
      <use x="347.363281" xlink:href="#DejaVuSans-115"/>
     </g>
    </g>
   </g>
   <g id="matplotlib.axis_2">
    <g id="ytick_1">
     <g id="line2d_6">
      <defs>
       <path d="M 0 0 
L -3.5 0 
" id="maf38e24189" style="stroke:#000000;stroke-width:0.8;"/>
      </defs>
      <g>
       <use style="stroke:#000000;stroke-width:0.8;" x="57.6" xlink:href="#maf38e24189" y="290.821532"/>
      </g>
     </g>
     <g id="text_7">
      <!-- −40 -->
      <g transform="translate(29.495313 294.62075)scale(0.1 -0.1)">
       <use xlink:href="#DejaVuSans-8722"/>
       <use x="83.789062" xlink:href="#DejaVuSans-52"/>
       <use x="147.412109" xlink:href="#DejaVuSans-48"/>
      </g>
     </g>
    </g>
    <g id="ytick_2">
     <g id="line2d_7">
      <g>
       <use style="stroke:#000000;stroke-width:0.8;" x="57.6" xlink:href="#maf38e24189" y="240.540907"/>
      </g>
     </g>
     <g id="text_8">
      <!-- −20 -->
      <g transform="translate(29.495313 244.340126)scale(0.1 -0.1)">
       <use xlink:href="#DejaVuSans-8722"/>
       <use x="83.789062" xlink:href="#DejaVuSans-50"/>
       <use x="147.412109" xlink:href="#DejaVuSans-48"/>
      </g>
     </g>
    </g>
    <g id="ytick_3">
     <g id="line2d_8">
      <g>
       <use style="stroke:#000000;stroke-width:0.8;" x="57.6" xlink:href="#maf38e24189" y="190.260283"/>
      </g>
     </g>
     <g id="text_9">
      <!-- 0 -->
      <g transform="translate(44.2375 194.059502)scale(0.1 -0.1)">
       <use xlink:href="#DejaVuSans-48"/>
      </g>
     </g>
    </g>
    <g id="ytick_4">
     <g id="line2d_9">
      <g>
       <use style="stroke:#000000;stroke-width:0.8;" x="57.6" xlink:href="#maf38e24189" y="139.979658"/>
      </g>
     </g>
     <g id="text_10">
      <!-- 20 -->
      <g transform="translate(37.875 143.778877)scale(0.1 -0.1)">
       <use xlink:href="#DejaVuSans-50"/>
       <use x="63.623047" xlink:href="#DejaVuSans-48"/>
      </g>
     </g>
    </g>
    <g id="ytick_5">
     <g id="line2d_10">
      <g>
       <use style="stroke:#000000;stroke-width:0.8;" x="57.6" xlink:href="#maf38e24189" y="89.699034"/>
      </g>
     </g>
     <g id="text_11">
      <!-- 40 -->
      <g transform="translate(37.875 93.498253)scale(0.1 -0.1)">
       <use xlink:href="#DejaVuSans-52"/>
       <use x="63.623047" xlink:href="#DejaVuSans-48"/>
      </g>
     </g>
    </g>
    <g id="text_12">
     <!-- Targets -->
     <defs>
      <path d="M -0.296875 72.90625 
L 61.375 72.90625 
L 61.375 64.59375 
L 35.5 64.59375 
L 35.5 0 
L 25.59375 0 
L 25.59375 64.59375 
L -0.296875 64.59375 
z
" id="DejaVuSans-84"/>
      <path d="M 34.28125 27.484375 
Q 23.390625 27.484375 19.1875 25 
Q 14.984375 22.515625 14.984375 16.5 
Q 14.984375 11.71875 18.140625 8.90625 
Q 21.296875 6.109375 26.703125 6.109375 
Q 34.1875 6.109375 38.703125 11.40625 
Q 43.21875 16.703125 43.21875 25.484375 
L 43.21875 27.484375 
z
M 52.203125 31.203125 
L 52.203125 0 
L 43.21875 0 
L 43.21875 8.296875 
Q 40.140625 3.328125 35.546875 0.953125 
Q 30.953125 -1.421875 24.3125 -1.421875 
Q 15.921875 -1.421875 10.953125 3.296875 
Q 6 8.015625 6 15.921875 
Q 6 25.140625 12.171875 29.828125 
Q 18.359375 34.515625 30.609375 34.515625 
L 43.21875 34.515625 
L 43.21875 35.40625 
Q 43.21875 41.609375 39.140625 45 
Q 35.0625 48.390625 27.6875 48.390625 
Q 23 48.390625 18.546875 47.265625 
Q 14.109375 46.140625 10.015625 43.890625 
L 10.015625 52.203125 
Q 14.9375 54.109375 19.578125 55.046875 
Q 24.21875 56 28.609375 56 
Q 40.484375 56 46.34375 49.84375 
Q 52.203125 43.703125 52.203125 31.203125 
z
" id="DejaVuSans-97"/>
      <path d="M 41.109375 46.296875 
Q 39.59375 47.171875 37.8125 47.578125 
Q 36.03125 48 33.890625 48 
Q 26.265625 48 22.1875 43.046875 
Q 18.109375 38.09375 18.109375 28.8125 
L 18.109375 0 
L 9.078125 0 
L 9.078125 54.6875 
L 18.109375 54.6875 
L 18.109375 46.1875 
Q 20.953125 51.171875 25.484375 53.578125 
Q 30.03125 56 36.53125 56 
Q 37.453125 56 38.578125 55.875 
Q 39.703125 55.765625 41.0625 55.515625 
z
" id="DejaVuSans-114"/>
      <path d="M 45.40625 27.984375 
Q 45.40625 37.75 41.375 43.109375 
Q 37.359375 48.484375 30.078125 48.484375 
Q 22.859375 48.484375 18.828125 43.109375 
Q 14.796875 37.75 14.796875 27.984375 
Q 14.796875 18.265625 18.828125 12.890625 
Q 22.859375 7.515625 30.078125 7.515625 
Q 37.359375 7.515625 41.375 12.890625 
Q 45.40625 18.265625 45.40625 27.984375 
z
M 54.390625 6.78125 
Q 54.390625 -7.171875 48.1875 -13.984375 
Q 42 -20.796875 29.203125 -20.796875 
Q 24.46875 -20.796875 20.265625 -20.09375 
Q 16.0625 -19.390625 12.109375 -17.921875 
L 12.109375 -9.1875 
Q 16.0625 -11.328125 19.921875 -12.34375 
Q 23.78125 -13.375 27.78125 -13.375 
Q 36.625 -13.375 41.015625 -8.765625 
Q 45.40625 -4.15625 45.40625 5.171875 
L 45.40625 9.625 
Q 42.625 4.78125 38.28125 2.390625 
Q 33.9375 0 27.875 0 
Q 17.828125 0 11.671875 7.65625 
Q 5.515625 15.328125 5.515625 27.984375 
Q 5.515625 40.671875 11.671875 48.328125 
Q 17.828125 56 27.875 56 
Q 33.9375 56 38.28125 53.609375 
Q 42.625 51.21875 45.40625 46.390625 
L 45.40625 54.6875 
L 54.390625 54.6875 
z
" id="DejaVuSans-103"/>
      <path d="M 56.203125 29.59375 
L 56.203125 25.203125 
L 14.890625 25.203125 
Q 15.484375 15.921875 20.484375 11.0625 
Q 25.484375 6.203125 34.421875 6.203125 
Q 39.59375 6.203125 44.453125 7.46875 
Q 49.3125 8.734375 54.109375 11.28125 
L 54.109375 2.78125 
Q 49.265625 0.734375 44.1875 -0.34375 
Q 39.109375 -1.421875 33.890625 -1.421875 
Q 20.796875 -1.421875 13.15625 6.1875 
Q 5.515625 13.8125 5.515625 26.8125 
Q 5.515625 40.234375 12.765625 48.109375 
Q 20.015625 56 32.328125 56 
Q 43.359375 56 49.78125 48.890625 
Q 56.203125 41.796875 56.203125 29.59375 
z
M 47.21875 32.234375 
Q 47.125 39.59375 43.09375 43.984375 
Q 39.0625 48.390625 32.421875 48.390625 
Q 24.90625 48.390625 20.390625 44.140625 
Q 15.875 39.890625 15.1875 32.171875 
z
" id="DejaVuSans-101"/>
     </defs>
     <g transform="translate(23.415625 192.604562)rotate(-90)scale(0.1 -0.1)">
      <use xlink:href="#DejaVuSans-84"/>
      <use x="44.583984" xlink:href="#DejaVuSans-97"/>
      <use x="105.863281" xlink:href="#DejaVuSans-114"/>
      <use x="145.226562" xlink:href="#DejaVuSans-103"/>
      <use x="208.703125" xlink:href="#DejaVuSans-101"/>
      <use x="270.226562" xlink:href="#DejaVuSans-116"/>
      <use x="309.435547" xlink:href="#DejaVuSans-115"/>
     </g>
    </g>
   </g>
   <g id="line2d_11">
    <path clip-path="url(#p900f025a65)" d="M 240.325795 172.269444 
L 144.379632 241.873875 
L 273.655365 148.243564 
L 250.068087 166.817046 
L 241.700095 172.33394 
L 315.560046 115.393297 
L 230.342871 181.084888 
L 180.913999 216.327388 
L 357.155732 86.289402 
L 155.333676 236.007885 
L 225.947449 183.624124 
L 238.364392 171.736586 
L 384.240955 63.535307 
L 304.61342 127.017718 
L 320.066994 111.48748 
L 253.653321 162.456929 
L 107.689267 268.421828 
L 161.423666 232.297993 
L 298.332114 126.811379 
L 244.495078 171.005378 
L 229.935349 180.168741 
L 178.133909 219.580742 
L 202.426924 198.266938 
L 210.778765 193.940987 
L 238.745756 172.222156 
L 129.273228 256.023962 
L 139.113908 247.660468 
L 241.274607 172.488019 
L 218.298761 188.907872 
L 182.277558 214.124514 
L 287.895814 134.574774 
L 242.650827 168.26351 
L 126.491813 256.8087 
L 224.359727 182.973881 
L 271.684167 149.005074 
L 305.952907 121.646442 
L 155.690587 234.893204 
L 262.659531 154.793654 
L 279.39466 143.198444 
L 300.697614 127.474005 
L 102.555639 274.317485 
L 283.900687 141.607041 
L 232.840198 180.144419 
L 231.684189 180.6597 
L 274.429615 149.426659 
L 245.629169 168.116824 
L 259.492999 159.809729 
L 361.204525 81.50401 
L 167.644826 226.949278 
L 211.631031 191.278241 
L 150.61808 240.694164 
L 285.615968 137.516093 
L 246.269294 167.162257 
L 256.234766 161.122986 
L 244.530208 168.473373 
L 295.446594 130.283271 
L 235.94731 175.285438 
L 185.972903 214.783699 
L 98.734064 279.99778 
L 348.817098 92.183636 
L 184.312691 214.929896 
L 158.64183 235.208851 
L 287.718384 138.994524 
L 160.052696 231.48514 
L 192.030378 206.733421 
L 270.658319 147.591825 
L 288.705855 134.629653 
L 273.349648 145.33453 
L 254.637619 160.998834 
L 205.60816 199.651255 
L 321.000672 111.489029 
L 253.901525 160.133876 
L 271.449137 147.104402 
L 313.523366 118.031161 
L 133.877058 253.477759 
L 144.595344 243.431566 
L 344.696533 93.049769 
L 182.368746 214.426349 
L 245.140858 168.56555 
L 333.122696 105.711847 
L 321.755959 111.963223 
L 248.62612 168.069514 
L 228.732579 181.373261 
L 235.042521 175.417132 
L 132.971469 251.462506 
L 163.57676 231.512251 
L 237.49273 176.005389 
L 261.702662 154.629755 
L 118.952473 262.965279 
L 297.659209 129.366721 
L 118.028269 261.267232 
L 176.311367 218.073697 
L 301.519097 127.008234 
L 326.330307 106.514064 
L 302.235451 126.959734 
L 238.113068 171.496993 
L 117.376247 262.780535 
L 196.08873 205.211827 
L 192.277617 207.419575 
L 193.503797 204.966201 
L 220.008475 189.66261 
L 313.431623 115.867195 
L 183.318199 217.022848 
L 276.015314 143.733806 
L 236.135261 175.532563 
L 281.033246 143.266249 
L 231.540645 178.016564 
L 271.682737 147.784024 
L 232.210067 176.371561 
L 303.24984 124.456763 
L 272.353091 150.867041 
L 311.766572 121.626903 
L 136.278386 250.796788 
L 112.697335 267.131386 
L 231.406793 176.534532 
L 312.369035 119.886624 
L 165.577967 229.732651 
L 306.812563 122.923863 
L 276.544459 144.10558 
L 142.790369 246.283995 
L 237.489219 175.941847 
L 210.677413 192.426155 
L 172.040242 224.692476 
L 125.772428 257.009689 
L 186.30553 209.947126 
L 174.991136 218.491189 
L 318.816682 112.806441 
L 312.444921 120.186741 
L 230.355429 180.729681 
L 281.034479 140.761524 
L 332.234099 106.492209 
L 171.419024 223.094654 
L 237.178838 173.717868 
L 178.922205 218.474273 
L 274.551498 146.007095 
L 250.139655 162.878178 
L 270.351424 151.581562 
L 201.302402 201.711247 
L 328.865445 108.139782 
L 171.572008 222.541273 
L 271.254743 150.513805 
L 329.152894 107.541576 
L 288.959345 137.497776 
L 123.777637 260.495274 
L 188.265159 211.513293 
L 355.293826 89.335593 
L 282.967987 141.917741 
L 136.228077 250.773983 
L 245.830703 169.875957 
L 114.660821 267.064629 
L 161.996164 229.924186 
L 263.834298 152.807341 
L 230.737881 178.312433 
L 311.770585 118.855325 
L 164.443631 229.919107 
L 298.513064 127.691784 
L 127.128103 256.471994 
L 169.891035 222.8743 
L 114.311005 268.196594 
L 319.369102 115.181116 
L 318.961749 115.394461 
L 304.160526 123.486499 
L 287.783266 136.883595 
L 280.834768 142.879808 
L 210.449618 196.671296 
L 286.177593 138.824201 
L 347.797245 90.306461 
L 269.908997 151.338413 
L 168.648219 224.332395 
L 294.94754 131.021774 
L 342.994587 94.168345 
L 145.017801 244.703794 
L 258.31344 160.057037 
L 160.438459 230.624473 
L 186.49449 213.760552 
L 107.255368 271.733693 
L 200.552585 202.4838 
L 158.811761 234.22218 
L 138.925716 247.867927 
L 317.515008 116.777214 
L 235.98481 174.513783 
L 116.983793 262.088476 
L 265.12024 153.989353 
L 134.071947 253.335814 
L 234.419383 176.276958 
L 298.077179 130.689018 
L 247.654336 168.394289 
L 313.25312 115.639002 
L 202.321973 200.022601 
L 250.101814 164.129209 
L 245.937352 165.599054 
L 293.014022 134.4738 
L 236.156394 176.470617 
L 180.257047 218.621151 
L 306.19571 123.341173 
L 152.504117 235.596938 
L 194.533445 207.504428 
L 305.965879 125.351666 
L 155.406615 235.416465 
L 176.920743 218.586997 
L 89.385595 282.437936 
L 273.721174 149.01776 
L 299.291499 128.847791 
L 281.169296 140.205013 
L 367.260175 77.617874 
L 194.401657 204.629239 
L 130.435231 252.224959 
L 281.902433 143.788697 
L 244.99344 167.689828 
L 186.87906 213.164268 
L 98.459435 275.305591 
L 304.433891 125.36635 
L 170.938261 221.631666 
L 176.654856 222.031404 
L 135.14772 251.674944 
L 254.432437 159.572167 
L 238.214484 175.325584 
L 390.991956 58.737202 
L 158.742565 234.862826 
L 251.100262 163.196115 
L 367.302467 76.082178 
L 244.576992 167.837594 
L 313.49373 119.793938 
L 251.691259 164.433479 
L 192.319527 208.185953 
L 264.263874 155.578839 
L 130.450889 255.247482 
L 207.077983 199.056139 
L 122.12853 261.392666 
L 259.627776 155.516558 
L 104.550945 274.282106 
L 276.216639 143.851104 
L 211.373323 192.694657 
L 169.89466 226.902858 
L 257.599284 158.916782 
L 274.669034 146.923226 
L 153.933551 235.611749 
L 360.275705 85.154325 
L 236.144395 175.332609 
L 199.983447 203.342806 
L 158.597566 230.819795 
L 298.340259 130.901347 
L 124.591416 259.389831 
L 255.699249 162.963724 
L 256.440148 161.169992 
L 346.140415 92.233664 
L 294.293779 130.774173 
L 378.439777 72.037861 
L 230.952234 180.65112 
L 373.510345 75.302452 
L 278.382357 142.228664 
L 157.835029 232.086189 
L 288.927709 138.24366 
L 190.457435 207.978267 
L 309.86553 121.56011 
L 241.475077 174.003194 
L 308.038596 119.717086 
L 178.914322 216.751416 
L 122.244331 259.017586 
L 311.833284 119.202957 
L 225.178172 183.627318 
L 249.929455 164.369504 
L 394.755405 58.939421 
L 233.300866 176.145169 
L 293.872401 132.740898 
L 224.237122 185.328502 
L 211.268147 192.281512 
L 255.783756 163.029351 
L 278.514345 142.696295 
L 132.497542 252.558019 
L 224.594865 183.07477 
L 176.779644 219.547269 
L 239.889887 171.817312 
L 187.597463 212.578101 
L 137.962546 249.78576 
L 234.842424 174.71753 
L 103.970337 273.446243 
L 225.869038 182.454896 
L 238.578295 172.352667 
L 194.882959 204.734662 
L 215.398853 189.142147 
L 131.167275 253.996428 
L 201.767289 203.37679 
L 362.338622 79.398007 
L 159.96843 232.569619 
L 192.965447 205.94036 
L 245.411565 166.988431 
L 228.040127 181.393115 
L 98.741915 278.653967 
L 157.693758 231.876489 
L 298.585017 128.144442 
L 325.605779 109.809495 
L 189.733611 208.959883 
L 234.900462 176.182644 
L 275.181883 147.320423 
L 151.272713 237.660015 
L 295.806535 131.600824 
L 268.95439 150.516714 
L 200.732547 203.174706 
L 327.872413 105.048449 
L 125.331178 257.251196 
L 99.257084 276.305205 
L 297.903632 129.122347 
L 155.798254 234.785833 
L 255.61327 161.613394 
L 171.7553 222.455933 
L 168.17042 224.206559 
L 306.648006 122.846814 
L 318.783105 115.531589 
L 320.513991 113.409943 
L 315.89991 114.479203 
L 246.081404 168.014156 
L 291.876039 135.864942 
L 324.956919 111.452825 
L 267.169774 153.859095 
L 313.240466 119.49112 
L 298.680927 131.327634 
L 296.893471 128.845753 
L 162.287104 231.474972 
L 300.140424 126.12483 
L 368.250311 77.861566 
L 252.791233 162.167932 
L 194.391895 208.7099 
L 96.491775 280.346872 
L 369.219003 77.363865 
L 253.401646 162.595241 
L 248.541881 164.039852 
L 285.539812 137.701488 
L 287.335998 138.780856 
L 378.726341 69.479837 
L 254.88241 160.023203 
L 350.761481 90.539089 
L 248.248043 165.291014 
L 209.544708 195.180629 
L 191.475989 209.843097 
L 79.128032 293.777221 
L 164.725561 229.5295 
L 214.297902 193.775722 
L 195.302839 203.223706 
L 259.080352 156.734055 
L 169.770132 222.569541 
L 153.235512 238.87587 
L 280.184499 144.401927 
L 335.483981 100.62828 
L 236.916571 172.933225 
L 73.832727 295.488 
L 252.076816 162.611144 
L 219.308771 188.598311 
L 260.538539 156.082808 
L 238.879351 175.773644 
L 157.767917 232.761466 
L 260.46531 158.816793 
L 128.11364 255.17486 
L 185.711345 210.316209 
L 258.66998 158.282877 
L 305.181106 123.258007 
L 145.23067 244.78806 
L 233.676172 175.812378 
L 159.744558 233.29294 
L 213.571842 191.405761 
L 252.961247 162.819327 
L 253.797847 160.654578 
L 272.660149 146.839292 
L 347.488226 92.774977 
L 244.6235 166.602769 
L 186.684264 214.069671 
L 300.502625 128.274959 
L 290.982635 135.32035 
L 264.24598 155.006631 
L 227.736099 183.538136 
L 327.163647 107.924729 
L 143.186292 245.953721 
L 227.82004 183.599825 
L 245.108184 169.097508 
L 125.06184 257.52684 
L 235.098828 177.66955 
L 330.556115 105.825165 
L 331.263989 106.308882 
L 288.450422 136.276286 
L 219.500507 187.966288 
L 338.447966 99.63092 
L 280.302807 143.686488 
L 305.304955 123.63627 
L 178.87365 216.99326 
L 100.754082 277.441106 
L 242.847837 170.714826 
L 314.388969 116.730618 
L 238.46192 173.573099 
L 233.10638 176.065001 
L 142.954013 246.318345 
L 244.303942 167.976803 
L 204.871762 196.389311 
L 255.091435 160.121874 
L 214.378791 191.495618 
L 265.420918 154.389181 
L 177.891733 217.619024 
L 338.990579 99.934697 
L 148.64468 240.290138 
L 298.059519 129.473128 
L 265.632779 155.476889 
L 247.715714 166.320163 
L 288.243026 137.999165 
L 287.043271 135.503696 
L 182.405037 215.560806 
L 189.616032 208.74056 
L 200.969843 202.562259 
L 306.881901 123.101615 
L 165.399015 226.18219 
L 350.024807 92.922869 
L 317.739693 113.882346 
L 381.064958 67.428913 
L 298.915404 129.050405 
L 253.333632 164.865768 
L 224.218885 184.39003 
L 275.691482 144.23415 
L 269.885509 151.795056 
L 266.977147 151.821541 
L 209.869142 195.349276 
L 236.27115 174.534521 
L 298.427732 131.218211 
L 194.969293 205.662194 
L 255.697297 158.988143 
L 339.329844 100.995386 
L 357.369253 86.272414 
L 214.782551 189.853153 
L 203.093957 197.720227 
L 267.652822 154.217585 
L 126.883162 254.779599 
L 321.861401 110.33748 
L 168.778213 225.264963 
L 301.64656 125.113819 
L 147.474367 243.649115 
L 273.030738 146.277838 
L 192.707979 208.418813 
L 270.132476 149.352458 
L 215.605528 192.972444 
L 190.543291 211.065081 
L 342.23558 97.88083 
L 153.566549 235.248833 
L 337.306914 102.062477 
L 320.186285 112.68661 
L 365.522549 80.955526 
L 197.144624 202.525792 
L 140.515172 246.952166 
L 226.321177 181.004727 
L 100.200853 276.685441 
L 302.673371 124.384713 
L 189.959109 211.679104 
L 279.574646 143.506526 
L 332.37604 101.425635 
L 337.130531 99.044251 
L 155.653225 237.502845 
L 325.473945 108.245937 
L 211.487139 191.208501 
L 125.578598 256.146633 
L 216.735444 188.433867 
L 252.921983 165.154804 
L 222.313778 184.873458 
L 158.424372 230.898527 
L 323.190543 110.678477 
L 197.971969 206.012909 
L 197.69894 203.174418 
L 187.425764 213.842571 
L 327.202406 109.796221 
L 90.818841 281.65409 
L 149.863868 237.451602 
L 146.889379 243.867091 
L 131.260555 254.646258 
L 209.487719 197.582027 
L 113.988138 268.050399 
L 179.516449 216.1556 
L 251.417173 161.803284 
L 192.350985 207.445334 
L 319.891005 114.658871 
L 313.250735 118.272565 
L 286.738808 140.281541 
L 252.068431 162.56416 
L 272.719258 147.528238 
L 112.970199 268.56999 
L 224.529504 184.548941 
L 301.249737 125.648052 
L 311.377571 118.739262 
L 331.842046 103.510528 
L 310.791463 122.029187 
L 311.492966 119.94421 
L 266.526334 154.279089 
L 322.897656 109.068181 
L 382.990819 67.286054 
L 383.411576 65.581665 
L 184.606717 211.678307 
L 355.326664 89.178564 
L 281.268951 142.75062 
L 196.269369 203.829039 
L 246.970003 166.792968 
L 226.908999 183.420782 
L 167.245224 228.723951 
L 326.802384 108.202804 
L 291.215346 132.102498 
L 141.741285 247.051434 
L 257.680226 159.496828 
L 341.731575 95.482272 
L 216.631462 189.511239 
L 311.989438 120.640858 
L 182.114076 214.928264 
L 256.258497 161.920845 
L 263.4708 153.582666 
L 254.62029 160.978573 
L 284.926779 141.521922 
L 86.592259 288.67048 
L 77.491568 293.629463 
L 281.243348 143.305498 
L 334.905862 101.025243 
L 237.442523 173.516575 
L 277.33745 143.09565 
L 315.366959 114.872222 
L 225.119299 186.00109 
L 188.384639 208.464139 
L 182.709884 217.523091 
L 200.248483 200.798643 
L 262.236375 155.940971 
L 216.207776 188.337375 
L 238.175889 175.547026 
L 152.640434 238.993436 
L 294.33403 131.149956 
L 143.076037 242.311466 
L 275.679886 146.936136 
L 305.019475 121.929108 
L 243.821339 172.209212 
L 344.011455 96.502462 
L 336.886695 98.199475 
L 180.722266 214.954837 
L 266.362862 155.347402 
L 240.253269 173.128933 
L 274.571217 147.94278 
L 142.187832 243.113448 
L 241.707782 171.454202 
L 365.751228 77.28712 
L 146.985508 242.820643 
L 320.563717 113.841554 
L 316.645386 117.598739 
L 208.770109 197.379323 
L 216.662048 187.904638 
L 180.603475 216.750412 
L 163.325845 228.537502 
L 252.598333 161.778454 
L 202.145105 199.943104 
L 117.45617 264.343254 
L 188.815605 209.685719 
L 153.729966 238.547552 
L 308.160178 122.094115 
L 247.914048 165.165817 
L 187.478091 212.692516 
L 74.278434 293.488572 
L 162.309403 228.093231 
L 262.076183 156.402799 
L 209.346928 196.829197 
L 268.265501 153.78932 
L 117.269702 263.987004 
L 168.651308 225.949921 
L 286.920383 136.450722 
L 221.748735 184.024472 
L 237.563102 174.110754 
L 167.21865 228.824278 
L 266.893372 152.238461 
L 344.817897 93.494765 
L 277.768809 144.029523 
L 190.421231 208.858336 
L 245.130983 169.020056 
L 261.135183 154.451415 
L 316.76613 115.861747 
L 153.206079 235.211059 
L 262.914888 153.618071 
L 243.440007 170.102808 
L 193.052375 207.386404 
L 327.629076 106.299277 
L 214.037442 193.613083 
L 271.318657 147.79807 
L 118.361837 264.560646 
L 249.17481 165.530259 
L 101.414343 274.207286 
L 185.635425 213.537643 
L 223.772107 183.390148 
L 167.45036 226.057021 
L 174.043074 222.420329 
L 194.081811 205.420111 
L 212.994189 191.644458 
L 150.955662 240.944317 
L 341.397214 98.177283 
L 345.839301 92.742786 
L 280.203031 141.737495 
L 340.054275 98.645655 
L 220.542566 186.336182 
L 249.292544 166.815805 
L 227.966205 182.410244 
L 228.391387 182.396754 
L 87.894478 286.942082 
L 241.332718 169.685559 
L 394.154796 60.011316 
L 203.280982 201.14661 
L 97.273918 278.188136 
L 128.663946 256.840296 
L 167.650888 228.372924 
L 189.02904 209.321712 
L 229.326488 178.599019 
L 229.635795 179.060413 
L 125.752004 258.038953 
L 255.559244 159.07671 
L 137.692683 250.3055 
L 202.092854 203.047387 
L 320.099095 114.946631 
L 196.353135 204.362985 
L 220.163982 188.53584 
L 205.01088 200.614151 
L 199.466138 200.659516 
L 153.004865 235.723819 
L 263.675196 155.083488 
L 267.25617 154.399133 
L 268.395837 152.253727 
L 159.282004 232.686894 
L 194.889459 203.960606 
L 202.97369 200.736615 
L 288.104905 137.525419 
L 162.709416 230.102315 
L 133.61767 251.232148 
L 103.974759 273.503601 
L 308.009548 124.190239 
L 115.10753 265.430092 
L 256.203112 160.807024 
L 187.394111 209.886371 
L 262.636507 156.913622 
L 295.999006 130.144666 
L 270.834178 147.713437 
L 253.654119 161.962151 
L 214.705475 189.241311 
L 357.005794 87.593153 
L 304.590764 124.420312 
L 223.118859 185.473706 
L 263.678355 154.028555 
L 306.813329 122.03046 
L 229.751606 181.283475 
L 277.738848 145.209624 
L 305.618773 122.735163 
L 234.625852 175.040362 
L 260.07685 157.04005 
L 153.092087 237.530231 
L 176.63352 218.085057 
L 183.364998 214.199718 
L 159.477817 232.140549 
L 170.574273 225.957233 
L 93.331091 280.332169 
L 309.924981 118.984913 
L 298.725347 131.421467 
L 141.088496 244.862032 
L 353.14463 87.364156 
L 254.871599 161.259959 
L 319.702188 112.169131 
L 205.655326 196.947662 
L 243.286059 170.326719 
L 107.079026 269.793099 
L 213.577859 193.490454 
L 213.585556 190.939194 
L 262.361268 154.794118 
L 283.70045 142.534952 
L 203.507633 201.901954 
L 113.791497 266.290441 
L 353.31819 89.980441 
L 209.352398 192.977466 
L 322.459752 108.789102 
L 343.126523 95.630856 
L 296.948161 132.539253 
L 356.737887 85.500667 
L 219.253055 189.620542 
L 223.168124 186.071008 
L 135.472047 252.63244 
L 328.376166 108.724084 
L 278.157848 143.672032 
L 290.267901 134.495343 
L 284.474642 138.012521 
L 287.374902 135.654155 
L 162.313073 231.032597 
L 377.31054 71.82824 
L 111.370618 265.99836 
L 149.022097 240.890745 
L 221.565207 184.421383 
L 291.278546 134.507505 
L 343.390052 97.680093 
L 195.212711 206.786026 
L 194.414553 205.525501 
L 281.942228 141.959789 
L 205.433724 196.96223 
L 274.759405 146.218381 
L 261.217475 159.276154 
L 285.937627 139.009358 
L 318.201698 112.180645 
L 262.08347 158.258411 
L 241.023765 173.131791 
L 354.055743 88.623823 
L 174.802822 218.941078 
L 314.258748 116.590078 
L 134.4716 251.49814 
L 288.389404 136.721334 
L 179.050007 218.078308 
L 260.273095 157.26095 
L 297.065887 130.482609 
L 280.66403 143.02374 
L 199.40543 200.650841 
L 136.461317 248.595344 
L 268.916694 150.417952 
L 315.075954 119.197501 
L 105.819684 272.452421 
L 225.005195 182.526421 
L 299.727727 129.334408 
L 188.585466 210.839452 
L 290.832174 132.372413 
L 83.104368 288.239623 
L 259.447928 156.309256 
L 123.457157 260.827196 
L 280.519469 142.609929 
L 207.004954 195.656255 
L 193.176642 205.261137 
L 318.852284 116.117026 
L 276.151556 145.221426 
L 304.617749 124.402108 
L 161.851637 229.677851 
L 191.221671 208.443388 
L 231.536425 180.838577 
L 215.816007 188.130967 
L 192.914036 206.781174 
L 190.096516 208.393596 
L 293.194607 130.640048 
L 363.421699 78.601268 
L 215.007801 188.68541 
L 261.346309 155.148589 
L 144.332861 241.543194 
L 188.498057 208.446753 
L 149.037642 241.310891 
L 177.833681 217.221883 
L 321.585265 111.32226 
L 304.038113 126.711914 
L 312.371346 120.291811 
L 200.116138 200.317244 
L 181.704429 216.266134 
L 254.321022 164.189015 
L 260.230399 157.662684 
L 192.682602 208.611779 
L 324.031977 108.277534 
L 176.948116 218.576631 
L 300.444881 128.258303 
L 323.051166 109.407495 
L 252.44695 164.074956 
L 316.25488 115.630232 
L 114.280729 264.709717 
L 382.596657 68.127872 
L 386.529116 61.407387 
L 195.403837 207.025914 
L 249.713081 163.081357 
L 192.373647 206.550883 
L 173.321127 223.390664 
L 190.235203 208.661096 
L 261.797349 158.363556 
L 315.308936 114.779381 
L 306.918018 124.916422 
L 321.220276 109.866698 
L 208.750676 194.886681 
L 330.264376 105.030256 
L 141.929329 247.462708 
L 90.353035 283.138715 
L 260.934082 156.009108 
L 209.900164 194.705701 
L 271.375316 150.035842 
L 217.455064 191.126566 
L 219.199086 189.878529 
L 266.052344 154.820629 
L 123.662634 261.089413 
L 333.911086 101.148476 
L 156.908657 233.825305 
L 187.188902 212.916999 
L 153.081595 234.621972 
L 245.066364 166.555139 
L 177.284572 220.794856 
L 209.973302 197.18247 
L 249.030717 166.200293 
L 179.283938 216.936016 
L 209.74573 195.318993 
L 234.021307 174.582538 
L 279.43476 143.52917 
L 260.48163 158.644699 
L 321.014855 114.262266 
L 178.848176 218.97696 
L 206.819845 197.437927 
L 281.011161 143.660733 
L 175.777602 221.740796 
L 261.301976 155.433344 
L 284.778588 140.141662 
L 355.777534 86.607333 
L 140.718953 247.00945 
L 225.890495 180.722833 
L 367.273661 78.756797 
L 109.635652 269.731521 
L 327.120953 107.774477 
L 251.966349 164.611504 
L 197.713991 204.31365 
L 236.943809 174.581243 
L 329.491891 104.287283 
L 219.907558 186.350421 
L 216.767052 190.401127 
L 209.260354 197.476363 
L 209.74433 195.301415 
L 250.967718 165.780299 
L 257.192441 160.489116 
L 210.709034 196.557812 
L 290.452913 137.016729 
L 291.407528 134.854475 
L 244.534446 167.581841 
L 275.408819 144.50834 
L 289.941301 137.301557 
L 253.003562 160.551639 
L 167.586338 226.868117 
L 197.603445 203.338835 
L 301.085801 127.628359 
L 247.770115 168.247917 
L 166.865441 228.396977 
L 278.755377 145.939479 
L 343.067383 96.079134 
L 160.368656 230.788026 
L 175.569223 218.067485 
L 335.274068 101.446004 
L 350.711231 90.793989 
L 175.189803 220.892585 
L 180.722154 215.959385 
L 248.608476 164.135444 
L 296.319256 131.656644 
L 131.960228 252.823264 
L 252.648089 165.357634 
L 313.655386 115.524731 
L 145.060425 241.08994 
L 273.318135 146.578117 
L 185.033709 214.499127 
L 200.795417 202.283007 
L 174.915711 218.832024 
L 251.894665 163.098659 
L 293.216272 132.807039 
L 337.611547 101.542752 
L 235.77846 174.336612 
L 132.217068 252.409574 
L 324.523072 108.770669 
L 344.944537 92.725254 
L 209.376542 196.699941 
L 173.043263 224.06912 
L 254.223932 162.881576 
L 231.283188 177.549573 
L 90.658006 282.987422 
L 323.130793 108.58725 
L 142.767453 246.557543 
L 215.747607 191.156299 
L 281.158235 142.522074 
L 237.059082 174.815228 
L 291.905981 132.605435 
L 198.870436 204.501493 
L 169.882444 224.593904 
L 331.046756 104.337831 
L 370.286216 75.215718 
L 229.37506 182.904366 
L 303.898736 124.997922 
L 347.054808 92.918788 
L 202.429438 201.423465 
L 235.358827 176.189067 
L 104.035507 274.931933 
L 141.274885 243.498626 
L 187.718538 210.877939 
L 123.044356 257.075919 
L 370.212901 73.393782 
L 190.905664 209.033284 
L 283.713237 138.536743 
L 210.057212 193.723475 
L 225.435957 183.068716 
L 323.762713 110.069173 
L 199.69672 201.52257 
L 254.712755 162.445538 
L 91.985302 283.510023 
L 249.17131 164.766171 
L 159.174636 231.663057 
L 325.14876 108.298865 
L 261.553738 158.131124 
L 193.785348 205.206198 
L 249.138941 163.2252 
L 168.534698 224.320212 
L 274.049126 146.619904 
L 119.654156 259.581133 
L 183.604803 213.542856 
L 260.11395 156.596661 
L 199.660593 202.012329 
L 228.918313 183.122436 
L 215.264719 188.511602 
L 270.725485 149.237532 
L 168.724993 225.416513 
L 297.981132 129.500391 
L 170.973287 222.552208 
L 176.747358 221.441244 
L 192.520696 209.69467 
L 168.90472 223.999011 
L 279.459353 145.057864 
L 102.602592 272.686546 
L 174.291696 221.802348 
L 369.45047 78.071914 
L 103.616104 274.374097 
L 218.752416 188.244986 
L 308.641753 120.778982 
L 282.658431 141.872216 
L 320.015719 112.730754 
L 310.170655 119.142648 
L 233.299702 178.088141 
L 297.236321 129.94206 
L 318.86092 111.525407 
L 199.129956 203.035581 
L 176.446457 219.327024 
L 270.502144 150.805771 
L 264.858228 152.048061 
L 258.873618 160.850916 
L 240.013995 170.822651 
L 200.739977 199.464253 
L 158.175035 235.019337 
L 193.804381 205.771594 
L 227.149064 182.880438 
L 256.865179 161.030305 
L 394.030446 56.293909 
L 398.487273 53.568 
L 185.24229 212.49348 
L 320.745672 110.75821 
L 283.827557 141.618658 
L 232.818256 178.213492 
L 226.761792 180.764619 
L 255.662901 162.799153 
L 118.63494 261.611053 
L 185.525271 210.880476 
L 238.895437 173.053835 
L 198.531153 201.240338 
L 157.636563 233.059017 
L 248.682339 165.316275 
L 302.742665 126.384584 
L 181.903312 214.540628 
L 310.283838 122.503198 
L 209.189661 194.061364 
L 265.678081 154.976138 
L 232.169632 178.427933 
L 201.63297 201.269596 
L 306.339306 125.788519 
L 290.109025 136.434703 
L 190.924214 207.450283 
L 124.623711 256.932221 
L 193.29557 207.816861 
L 264.180281 152.878602 
L 170.109492 224.940592 
L 330.580954 105.618937 
L 230.550037 181.181831 
L 267.434408 150.926692 
L 217.757967 189.709444 
L 178.218491 218.88754 
L 121.333286 260.119681 
L 368.749564 74.722208 
L 322.764994 112.297466 
L 349.146902 90.32341 
L 220.981605 189.055957 
L 325.322787 110.454268 
L 231.61399 181.054647 
L 233.903852 177.497987 
L 320.757 111.080874 
L 269.689801 152.143213 
L 229.327565 180.35514 
L 148.669446 240.3722 
L 230.193958 178.304 
L 374.960505 71.712815 
L 183.450541 213.683541 
L 236.94232 176.687529 
L 218.278892 187.512933 
L 232.966373 175.554798 
L 202.371378 202.2307 
L 314.910953 115.022393 
L 88.38958 287.678889 
L 229.124897 182.300766 
L 226.025999 180.542771 
L 218.139329 190.340306 
L 244.500833 169.216156 
L 190.429844 207.414068 
L 273.750395 147.651512 
L 371.061311 76.13417 
L 299.74768 127.834706 
L 164.306506 230.745357 
L 173.494617 221.213506 
L 277.6633 144.323198 
L 274.441717 146.467426 
L 143.703273 244.273543 
L 199.802998 201.13285 
L 199.802998 201.13285 
" style="fill:none;stroke:#1f77b4;stroke-linecap:square;stroke-width:1.5;"/>
   </g>
   <g id="patch_3">
    <path d="M 57.6 307.584 
L 57.6 41.472 
" style="fill:none;stroke:#000000;stroke-linecap:square;stroke-linejoin:miter;stroke-width:0.8;"/>
   </g>
   <g id="patch_4">
    <path d="M 414.72 307.584 
L 414.72 41.472 
" style="fill:none;stroke:#000000;stroke-linecap:square;stroke-linejoin:miter;stroke-width:0.8;"/>
   </g>
   <g id="patch_5">
    <path d="M 57.6 307.584 
L 414.72 307.584 
" style="fill:none;stroke:#000000;stroke-linecap:square;stroke-linejoin:miter;stroke-width:0.8;"/>
   </g>
   <g id="patch_6">
    <path d="M 57.6 41.472 
L 414.72 41.472 
" style="fill:none;stroke:#000000;stroke-linecap:square;stroke-linejoin:miter;stroke-width:0.8;"/>
   </g>
  </g>
 </g>
 <defs>
  <clipPath id="p900f025a65">
   <rect height="266.112" width="357.12" x="57.6" y="41.472"/>
  </clipPath>
 </defs>
</svg>
