<?xml version="1.0" encoding="utf-8" standalone="no"?>
<!DOCTYPE svg PUBLIC "-//W3C//DTD SVG 1.1//EN"
  "http://www.w3.org/Graphics/SVG/1.1/DTD/svg11.dtd">
<!-- Created with matplotlib (https://matplotlib.org/) -->
<svg height="345.6pt" version="1.1" viewBox="0 0 460.8 345.6" width="460.8pt" xmlns="http://www.w3.org/2000/svg" xmlns:xlink="http://www.w3.org/1999/xlink">
 <defs>
  <style type="text/css">
*{stroke-linecap:butt;stroke-linejoin:round;}
  </style>
 </defs>
 <g id="figure_1">
  <g id="patch_1">
   <path d="M 0 345.6 
L 460.8 345.6 
L 460.8 0 
L 0 0 
z
" style="fill:#ffffff;"/>
  </g>
  <g id="patch_2">
   <path d="M 57.6 307.584 
L 414.72 307.584 
L 414.72 41.472 
L 57.6 41.472 
z
" style="fill:#ffffff;"/>
  </g>
  <g id="pane3d_1">
   <g id="patch_3">
    <path d="M 165.353148 190.858319 
L 123.272747 267.214583 
L 116.732222 134.130985 
L 161.514553 65.420633 
" style="fill:#f2f2f2;opacity:0.5;stroke:#f2f2f2;stroke-linejoin:miter;"/>
   </g>
  </g>
  <g id="pane3d_2">
   <g id="patch_4">
    <path d="M 350.593099 203.394844 
L 165.353148 190.858319 
L 161.514553 65.420633 
L 356.242229 76.658817 
" style="fill:#e6e6e6;opacity:0.5;stroke:#e6e6e6;stroke-linejoin:miter;"/>
   </g>
  </g>
  <g id="pane3d_3">
   <g id="patch_5">
    <path d="M 350.593099 203.394844 
L 165.353148 190.858319 
L 123.272747 267.214583 
L 324.735533 282.123152 
" style="fill:#ececec;opacity:0.5;stroke:#ececec;stroke-linejoin:miter;"/>
   </g>
  </g>
  <g id="axis3d_1">
   <g id="line2d_1">
    <path d="M 123.272747 267.214583 
L 324.735533 282.123152 
" style="fill:none;stroke:#000000;stroke-linecap:square;stroke-width:0.8;"/>
   </g>
   <g id="text_1">
    <!-- xs -->
    <defs>
     <path d="M 54.890625 54.6875 
L 35.109375 28.078125 
L 55.90625 0 
L 45.3125 0 
L 29.390625 21.484375 
L 13.484375 0 
L 2.875 0 
L 24.125 28.609375 
L 4.6875 54.6875 
L 15.28125 54.6875 
L 29.78125 35.203125 
L 44.28125 54.6875 
z
" id="DejaVuSans-120"/>
     <path d="M 44.28125 53.078125 
L 44.28125 44.578125 
Q 40.484375 46.53125 36.375 47.5 
Q 32.28125 48.484375 27.875 48.484375 
Q 21.1875 48.484375 17.84375 46.4375 
Q 14.5 44.390625 14.5 40.28125 
Q 14.5 37.15625 16.890625 35.375 
Q 19.28125 33.59375 26.515625 31.984375 
L 29.59375 31.296875 
Q 39.15625 29.25 43.1875 25.515625 
Q 47.21875 21.78125 47.21875 15.09375 
Q 47.21875 7.46875 41.1875 3.015625 
Q 35.15625 -1.421875 24.609375 -1.421875 
Q 20.21875 -1.421875 15.453125 -0.5625 
Q 10.6875 0.296875 5.421875 2 
L 5.421875 11.28125 
Q 10.40625 8.6875 15.234375 7.390625 
Q 20.0625 6.109375 24.8125 6.109375 
Q 31.15625 6.109375 34.5625 8.28125 
Q 37.984375 10.453125 37.984375 14.40625 
Q 37.984375 18.0625 35.515625 20.015625 
Q 33.0625 21.96875 24.703125 23.78125 
L 21.578125 24.515625 
Q 13.234375 26.265625 9.515625 29.90625 
Q 5.8125 33.546875 5.8125 39.890625 
Q 5.8125 47.609375 11.28125 51.796875 
Q 16.75 56 26.8125 56 
Q 31.78125 56 36.171875 55.265625 
Q 40.578125 54.546875 44.28125 53.078125 
z
" id="DejaVuSans-115"/>
    </defs>
    <g transform="translate(212.022139 310.095613)scale(0.1 -0.1)">
     <use xlink:href="#DejaVuSans-120"/>
     <use x="59.179688" xlink:href="#DejaVuSans-115"/>
    </g>
   </g>
   <g id="Line3DCollection_1">
    <path d="M 312.018731 281.182088 
L 338.914821 202.60449 
L 343.957194 75.94982 
" style="fill:none;stroke:#b0b0b0;stroke-width:0.8;"/>
    <path d="M 289.726977 279.532463 
L 318.438825 201.218732 
L 322.420147 74.706867 
" style="fill:none;stroke:#b0b0b0;stroke-width:0.8;"/>
    <path d="M 267.513265 277.888613 
L 298.028547 199.837421 
L 300.955769 73.468108 
" style="fill:none;stroke:#b0b0b0;stroke-width:0.8;"/>
    <path d="M 245.377187 276.250507 
L 277.683669 198.460536 
L 279.563693 72.233522 
" style="fill:none;stroke:#b0b0b0;stroke-width:0.8;"/>
    <path d="M 223.318336 274.618117 
L 257.403879 197.088056 
L 258.243555 71.003088 
" style="fill:none;stroke:#b0b0b0;stroke-width:0.8;"/>
    <path d="M 201.336309 272.991412 
L 237.188864 195.71996 
L 236.994992 69.776784 
" style="fill:none;stroke:#b0b0b0;stroke-width:0.8;"/>
    <path d="M 179.430704 271.370362 
L 217.038315 194.356227 
L 215.817646 68.55459 
" style="fill:none;stroke:#b0b0b0;stroke-width:0.8;"/>
    <path d="M 157.601125 269.754938 
L 196.951923 192.996836 
L 194.711157 67.336486 
" style="fill:none;stroke:#b0b0b0;stroke-width:0.8;"/>
    <path d="M 135.847176 268.145111 
L 176.929384 191.641766 
L 173.675171 66.122451 
" style="fill:none;stroke:#b0b0b0;stroke-width:0.8;"/>
   </g>
   <g id="xtick_1">
    <g id="line2d_2">
     <path d="M 312.253339 280.496675 
L 311.548486 282.555919 
" style="fill:none;stroke:#000000;stroke-linecap:square;stroke-width:0.8;"/>
    </g>
    <g id="text_2">
     <!-- −10.0 -->
     <defs>
      <path d="M 10.59375 35.5 
L 73.1875 35.5 
L 73.1875 27.203125 
L 10.59375 27.203125 
z
" id="DejaVuSans-8722"/>
      <path d="M 12.40625 8.296875 
L 28.515625 8.296875 
L 28.515625 63.921875 
L 10.984375 60.40625 
L 10.984375 69.390625 
L 28.421875 72.90625 
L 38.28125 72.90625 
L 38.28125 8.296875 
L 54.390625 8.296875 
L 54.390625 0 
L 12.40625 0 
z
" id="DejaVuSans-49"/>
      <path d="M 31.78125 66.40625 
Q 24.171875 66.40625 20.328125 58.90625 
Q 16.5 51.421875 16.5 36.375 
Q 16.5 21.390625 20.328125 13.890625 
Q 24.171875 6.390625 31.78125 6.390625 
Q 39.453125 6.390625 43.28125 13.890625 
Q 47.125 21.390625 47.125 36.375 
Q 47.125 51.421875 43.28125 58.90625 
Q 39.453125 66.40625 31.78125 66.40625 
z
M 31.78125 74.21875 
Q 44.046875 74.21875 50.515625 64.515625 
Q 56.984375 54.828125 56.984375 36.375 
Q 56.984375 17.96875 50.515625 8.265625 
Q 44.046875 -1.421875 31.78125 -1.421875 
Q 19.53125 -1.421875 13.0625 8.265625 
Q 6.59375 17.96875 6.59375 36.375 
Q 6.59375 54.828125 13.0625 64.515625 
Q 19.53125 74.21875 31.78125 74.21875 
z
" id="DejaVuSans-48"/>
      <path d="M 10.6875 12.40625 
L 21 12.40625 
L 21 0 
L 10.6875 0 
z
" id="DejaVuSans-46"/>
     </defs>
     <g transform="translate(294.341401 303.911344)scale(0.1 -0.1)">
      <use xlink:href="#DejaVuSans-8722"/>
      <use x="83.789062" xlink:href="#DejaVuSans-49"/>
      <use x="147.412109" xlink:href="#DejaVuSans-48"/>
      <use x="211.035156" xlink:href="#DejaVuSans-46"/>
      <use x="242.822266" xlink:href="#DejaVuSans-48"/>
     </g>
    </g>
   </g>
   <g id="xtick_2">
    <g id="line2d_3">
     <path d="M 289.977387 278.84945 
L 289.225061 280.901476 
" style="fill:none;stroke:#000000;stroke-linecap:square;stroke-width:0.8;"/>
    </g>
    <g id="text_3">
     <!-- −7.5 -->
     <defs>
      <path d="M 8.203125 72.90625 
L 55.078125 72.90625 
L 55.078125 68.703125 
L 28.609375 0 
L 18.3125 0 
L 43.21875 64.59375 
L 8.203125 64.59375 
z
" id="DejaVuSans-55"/>
      <path d="M 10.796875 72.90625 
L 49.515625 72.90625 
L 49.515625 64.59375 
L 19.828125 64.59375 
L 19.828125 46.734375 
Q 21.96875 47.46875 24.109375 47.828125 
Q 26.265625 48.1875 28.421875 48.1875 
Q 40.625 48.1875 47.75 41.5 
Q 54.890625 34.8125 54.890625 23.390625 
Q 54.890625 11.625 47.5625 5.09375 
Q 40.234375 -1.421875 26.90625 -1.421875 
Q 22.3125 -1.421875 17.546875 -0.640625 
Q 12.796875 0.140625 7.71875 1.703125 
L 7.71875 11.625 
Q 12.109375 9.234375 16.796875 8.0625 
Q 21.484375 6.890625 26.703125 6.890625 
Q 35.15625 6.890625 40.078125 11.328125 
Q 45.015625 15.765625 45.015625 23.390625 
Q 45.015625 31 40.078125 35.4375 
Q 35.15625 39.890625 26.703125 39.890625 
Q 22.75 39.890625 18.8125 39.015625 
Q 14.890625 38.140625 10.796875 36.28125 
z
" id="DejaVuSans-53"/>
     </defs>
     <g transform="translate(275.17542 302.230703)scale(0.1 -0.1)">
      <use xlink:href="#DejaVuSans-8722"/>
      <use x="83.789062" xlink:href="#DejaVuSans-55"/>
      <use x="147.412109" xlink:href="#DejaVuSans-46"/>
      <use x="179.199219" xlink:href="#DejaVuSans-53"/>
     </g>
    </g>
   </g>
   <g id="xtick_3">
    <g id="line2d_4">
     <path d="M 267.779366 277.207988 
L 266.979903 279.252834 
" style="fill:none;stroke:#000000;stroke-linecap:square;stroke-width:0.8;"/>
    </g>
    <g id="text_4">
     <!-- −5.0 -->
     <g transform="translate(252.906636 300.555962)scale(0.1 -0.1)">
      <use xlink:href="#DejaVuSans-8722"/>
      <use x="83.789062" xlink:href="#DejaVuSans-53"/>
      <use x="147.412109" xlink:href="#DejaVuSans-46"/>
      <use x="179.199219" xlink:href="#DejaVuSans-48"/>
     </g>
    </g>
   </g>
   <g id="xtick_4">
    <g id="line2d_5">
     <path d="M 245.658867 275.572258 
L 244.812601 277.609962 
" style="fill:none;stroke:#000000;stroke-linecap:square;stroke-width:0.8;"/>
    </g>
    <g id="text_5">
     <!-- −2.5 -->
     <defs>
      <path d="M 19.1875 8.296875 
L 53.609375 8.296875 
L 53.609375 0 
L 7.328125 0 
L 7.328125 8.296875 
Q 12.9375 14.109375 22.625 23.890625 
Q 32.328125 33.6875 34.8125 36.53125 
Q 39.546875 41.84375 41.421875 45.53125 
Q 43.3125 49.21875 43.3125 52.78125 
Q 43.3125 58.59375 39.234375 62.25 
Q 35.15625 65.921875 28.609375 65.921875 
Q 23.96875 65.921875 18.8125 64.3125 
Q 13.671875 62.703125 7.8125 59.421875 
L 7.8125 69.390625 
Q 13.765625 71.78125 18.9375 73 
Q 24.125 74.21875 28.421875 74.21875 
Q 39.75 74.21875 46.484375 68.546875 
Q 53.21875 62.890625 53.21875 53.421875 
Q 53.21875 48.921875 51.53125 44.890625 
Q 49.859375 40.875 45.40625 35.40625 
Q 44.1875 33.984375 37.640625 27.21875 
Q 31.109375 20.453125 19.1875 8.296875 
z
" id="DejaVuSans-50"/>
     </defs>
     <g transform="translate(230.715885 298.88709)scale(0.1 -0.1)">
      <use xlink:href="#DejaVuSans-8722"/>
      <use x="83.789062" xlink:href="#DejaVuSans-50"/>
      <use x="147.412109" xlink:href="#DejaVuSans-46"/>
      <use x="179.199219" xlink:href="#DejaVuSans-53"/>
     </g>
    </g>
   </g>
   <g id="xtick_5">
    <g id="line2d_6">
     <path d="M 223.615485 273.942231 
L 222.722747 275.972829 
" style="fill:none;stroke:#000000;stroke-linecap:square;stroke-width:0.8;"/>
    </g>
    <g id="text_6">
     <!-- 0.0 -->
     <g transform="translate(212.792601 297.224055)scale(0.1 -0.1)">
      <use xlink:href="#DejaVuSans-48"/>
      <use x="63.623047" xlink:href="#DejaVuSans-46"/>
      <use x="95.410156" xlink:href="#DejaVuSans-48"/>
     </g>
    </g>
   </g>
   <g id="xtick_6">
    <g id="line2d_7">
     <path d="M 201.648817 272.317877 
L 200.709936 274.341407 
" style="fill:none;stroke:#000000;stroke-linecap:square;stroke-width:0.8;"/>
    </g>
    <g id="text_7">
     <!-- 2.5 -->
     <g transform="translate(190.756691 295.566827)scale(0.1 -0.1)">
      <use xlink:href="#DejaVuSans-50"/>
      <use x="63.623047" xlink:href="#DejaVuSans-46"/>
      <use x="95.410156" xlink:href="#DejaVuSans-53"/>
     </g>
    </g>
   </g>
   <g id="xtick_7">
    <g id="line2d_8">
     <path d="M 179.758463 270.699166 
L 178.773765 272.715664 
" style="fill:none;stroke:#000000;stroke-linecap:square;stroke-width:0.8;"/>
    </g>
    <g id="text_8">
     <!-- 5.0 -->
     <g transform="translate(168.797594 293.915376)scale(0.1 -0.1)">
      <use xlink:href="#DejaVuSans-53"/>
      <use x="63.623047" xlink:href="#DejaVuSans-46"/>
      <use x="95.410156" xlink:href="#DejaVuSans-48"/>
     </g>
    </g>
   </g>
   <g id="xtick_8">
    <g id="line2d_9">
     <path d="M 157.944028 269.086069 
L 156.913836 271.095572 
" style="fill:none;stroke:#000000;stroke-linecap:square;stroke-width:0.8;"/>
    </g>
    <g id="text_9">
     <!-- 7.5 -->
     <g transform="translate(146.91491 292.269672)scale(0.1 -0.1)">
      <use xlink:href="#DejaVuSans-55"/>
      <use x="63.623047" xlink:href="#DejaVuSans-46"/>
      <use x="95.410156" xlink:href="#DejaVuSans-53"/>
     </g>
    </g>
   </g>
   <g id="xtick_9">
    <g id="line2d_10">
     <path d="M 136.205115 267.478556 
L 135.129751 269.481101 
" style="fill:none;stroke:#000000;stroke-linecap:square;stroke-width:0.8;"/>
    </g>
    <g id="text_10">
     <!-- 10.0 -->
     <g transform="translate(121.92699 290.629684)scale(0.1 -0.1)">
      <use xlink:href="#DejaVuSans-49"/>
      <use x="63.623047" xlink:href="#DejaVuSans-48"/>
      <use x="127.246094" xlink:href="#DejaVuSans-46"/>
      <use x="159.033203" xlink:href="#DejaVuSans-48"/>
     </g>
    </g>
   </g>
  </g>
  <g id="axis3d_2">
   <g id="line2d_11">
    <path d="M 350.593099 203.394844 
L 324.735533 282.123152 
" style="fill:none;stroke:#000000;stroke-linecap:square;stroke-width:0.8;"/>
   </g>
   <g id="text_11">
    <!-- zs -->
    <defs>
     <path d="M 5.515625 54.6875 
L 48.1875 54.6875 
L 48.1875 46.484375 
L 14.40625 7.171875 
L 48.1875 7.171875 
L 48.1875 0 
L 4.296875 0 
L 4.296875 8.203125 
L 38.09375 47.515625 
L 5.515625 47.515625 
z
" id="DejaVuSans-122"/>
    </defs>
    <g transform="translate(362.260091 264.89742)scale(0.1 -0.1)">
     <use xlink:href="#DejaVuSans-122"/>
     <use x="52.490234" xlink:href="#DejaVuSans-115"/>
    </g>
   </g>
   <g id="Line3DCollection_2">
    <path d="M 158.930781 69.384962 
L 162.914796 195.282786 
L 349.09665 207.951071 
" style="fill:none;stroke:#b0b0b0;stroke-width:0.8;"/>
    <path d="M 154.36708 76.387133 
L 158.611095 203.091993 
L 346.454849 215.99454 
" style="fill:none;stroke:#b0b0b0;stroke-width:0.8;"/>
    <path d="M 149.71485 83.525134 
L 154.228038 211.045195 
L 343.7636 224.188562 
" style="fill:none;stroke:#b0b0b0;stroke-width:0.8;"/>
    <path d="M 144.971491 90.802957 
L 149.763409 219.146411 
L 341.021502 232.537404 
" style="fill:none;stroke:#b0b0b0;stroke-width:0.8;"/>
    <path d="M 140.134299 98.224749 
L 145.214909 227.399812 
L 338.2271 241.045496 
" style="fill:none;stroke:#b0b0b0;stroke-width:0.8;"/>
    <path d="M 135.200461 105.794827 
L 140.580154 235.809727 
L 335.378883 249.717438 
" style="fill:none;stroke:#b0b0b0;stroke-width:0.8;"/>
    <path d="M 130.167052 113.517678 
L 135.856666 244.380651 
L 332.475281 258.55801 
" style="fill:none;stroke:#b0b0b0;stroke-width:0.8;"/>
    <path d="M 125.031028 121.397975 
L 131.041871 253.117253 
L 329.514663 267.572178 
" style="fill:none;stroke:#b0b0b0;stroke-width:0.8;"/>
    <path d="M 119.789216 129.440582 
L 126.133098 262.024383 
L 326.495333 276.765106 
" style="fill:none;stroke:#b0b0b0;stroke-width:0.8;"/>
   </g>
   <g id="xtick_10">
    <g id="line2d_12">
     <path d="M 347.585301 207.848235 
L 352.120422 208.156816 
" style="fill:none;stroke:#000000;stroke-linecap:square;stroke-width:0.8;"/>
    </g>
    <g id="text_12">
     <!-- −10.0 -->
     <g transform="translate(346.752552 225.006455)scale(0.1 -0.1)">
      <use xlink:href="#DejaVuSans-8722"/>
      <use x="83.789062" xlink:href="#DejaVuSans-49"/>
      <use x="147.412109" xlink:href="#DejaVuSans-48"/>
      <use x="211.035156" xlink:href="#DejaVuSans-46"/>
      <use x="242.822266" xlink:href="#DejaVuSans-48"/>
     </g>
    </g>
   </g>
   <g id="xtick_11">
    <g id="line2d_13">
     <path d="M 344.929805 215.889788 
L 349.506032 216.204118 
" style="fill:none;stroke:#000000;stroke-linecap:square;stroke-width:0.8;"/>
    </g>
    <g id="text_13">
     <!-- −7.5 -->
     <g transform="translate(347.418535 233.117623)scale(0.1 -0.1)">
      <use xlink:href="#DejaVuSans-8722"/>
      <use x="83.789062" xlink:href="#DejaVuSans-55"/>
      <use x="147.412109" xlink:href="#DejaVuSans-46"/>
      <use x="179.199219" xlink:href="#DejaVuSans-53"/>
     </g>
    </g>
   </g>
   <g id="xtick_12">
    <g id="line2d_14">
     <path d="M 342.22461 224.08184 
L 346.842695 224.402082 
" style="fill:none;stroke:#000000;stroke-linecap:square;stroke-width:0.8;"/>
    </g>
    <g id="text_14">
     <!-- −5.0 -->
     <g transform="translate(344.856305 241.380235)scale(0.1 -0.1)">
      <use xlink:href="#DejaVuSans-8722"/>
      <use x="83.789062" xlink:href="#DejaVuSans-53"/>
      <use x="147.412109" xlink:href="#DejaVuSans-46"/>
      <use x="179.199219" xlink:href="#DejaVuSans-48"/>
     </g>
    </g>
   </g>
   <g id="xtick_13">
    <g id="line2d_15">
     <path d="M 339.468309 232.428656 
L 344.129024 232.754978 
" style="fill:none;stroke:#000000;stroke-linecap:square;stroke-width:0.8;"/>
    </g>
    <g id="text_15">
     <!-- −2.5 -->
     <g transform="translate(342.245785 249.798573)scale(0.1 -0.1)">
      <use xlink:href="#DejaVuSans-8722"/>
      <use x="83.789062" xlink:href="#DejaVuSans-50"/>
      <use x="147.412109" xlink:href="#DejaVuSans-46"/>
      <use x="179.199219" xlink:href="#DejaVuSans-53"/>
     </g>
    </g>
   </g>
   <g id="xtick_14">
    <g id="line2d_16">
     <path d="M 336.659439 240.934664 
L 341.363579 241.26724 
" style="fill:none;stroke:#000000;stroke-linecap:square;stroke-width:0.8;"/>
    </g>
    <g id="text_16">
     <!-- 0.0 -->
     <g transform="translate(343.77544 258.37708)scale(0.1 -0.1)">
      <use xlink:href="#DejaVuSans-48"/>
      <use x="63.623047" xlink:href="#DejaVuSans-46"/>
      <use x="95.410156" xlink:href="#DejaVuSans-48"/>
     </g>
    </g>
   </g>
   <g id="xtick_15">
    <g id="line2d_17">
     <path d="M 333.796483 249.604462 
L 338.544862 249.943474 
" style="fill:none;stroke:#000000;stroke-linecap:square;stroke-width:0.8;"/>
    </g>
    <g id="text_17">
     <!-- 2.5 -->
     <g transform="translate(341.064152 267.120371)scale(0.1 -0.1)">
      <use xlink:href="#DejaVuSans-50"/>
      <use x="63.623047" xlink:href="#DejaVuSans-46"/>
      <use x="95.410156" xlink:href="#DejaVuSans-53"/>
     </g>
    </g>
   </g>
   <g id="xtick_16">
    <g id="line2d_18">
     <path d="M 330.877862 258.442826 
L 335.671321 258.788463 
" style="fill:none;stroke:#000000;stroke-linecap:square;stroke-width:0.8;"/>
    </g>
    <g id="text_18">
     <!-- 5.0 -->
     <g transform="translate(338.300278 276.033242)scale(0.1 -0.1)">
      <use xlink:href="#DejaVuSans-53"/>
      <use x="63.623047" xlink:href="#DejaVuSans-46"/>
      <use x="95.410156" xlink:href="#DejaVuSans-48"/>
     </g>
    </g>
   </g>
   <g id="xtick_17">
    <g id="line2d_19">
     <path d="M 327.901937 267.454722 
L 332.74134 267.807179 
" style="fill:none;stroke:#000000;stroke-linecap:square;stroke-width:0.8;"/>
    </g>
    <g id="text_19">
     <!-- 7.5 -->
     <g transform="translate(335.482273 285.120673)scale(0.1 -0.1)">
      <use xlink:href="#DejaVuSans-55"/>
      <use x="63.623047" xlink:href="#DejaVuSans-46"/>
      <use x="95.410156" xlink:href="#DejaVuSans-53"/>
     </g>
    </g>
   </g>
   <g id="xtick_18">
    <g id="line2d_20">
     <path d="M 324.867005 276.645309 
L 329.753239 277.004791 
" style="fill:none;stroke:#000000;stroke-linecap:square;stroke-width:0.8;"/>
    </g>
    <g id="text_20">
     <!-- 10.0 -->
     <g transform="translate(329.42728 294.387843)scale(0.1 -0.1)">
      <use xlink:href="#DejaVuSans-49"/>
      <use x="63.623047" xlink:href="#DejaVuSans-48"/>
      <use x="127.246094" xlink:href="#DejaVuSans-46"/>
      <use x="159.033203" xlink:href="#DejaVuSans-48"/>
     </g>
    </g>
   </g>
  </g>
  <g id="axis3d_3">
   <g id="line2d_21">
    <path d="M 350.593099 203.394844 
L 356.242229 76.658817 
" style="fill:none;stroke:#000000;stroke-linecap:square;stroke-width:0.8;"/>
   </g>
   <g id="text_21">
    <!-- Targets -->
    <defs>
     <path d="M -0.296875 72.90625 
L 61.375 72.90625 
L 61.375 64.59375 
L 35.5 64.59375 
L 35.5 0 
L 25.59375 0 
L 25.59375 64.59375 
L -0.296875 64.59375 
z
" id="DejaVuSans-84"/>
     <path d="M 34.28125 27.484375 
Q 23.390625 27.484375 19.1875 25 
Q 14.984375 22.515625 14.984375 16.5 
Q 14.984375 11.71875 18.140625 8.90625 
Q 21.296875 6.109375 26.703125 6.109375 
Q 34.1875 6.109375 38.703125 11.40625 
Q 43.21875 16.703125 43.21875 25.484375 
L 43.21875 27.484375 
z
M 52.203125 31.203125 
L 52.203125 0 
L 43.21875 0 
L 43.21875 8.296875 
Q 40.140625 3.328125 35.546875 0.953125 
Q 30.953125 -1.421875 24.3125 -1.421875 
Q 15.921875 -1.421875 10.953125 3.296875 
Q 6 8.015625 6 15.921875 
Q 6 25.140625 12.171875 29.828125 
Q 18.359375 34.515625 30.609375 34.515625 
L 43.21875 34.515625 
L 43.21875 35.40625 
Q 43.21875 41.609375 39.140625 45 
Q 35.0625 48.390625 27.6875 48.390625 
Q 23 48.390625 18.546875 47.265625 
Q 14.109375 46.140625 10.015625 43.890625 
L 10.015625 52.203125 
Q 14.9375 54.109375 19.578125 55.046875 
Q 24.21875 56 28.609375 56 
Q 40.484375 56 46.34375 49.84375 
Q 52.203125 43.703125 52.203125 31.203125 
z
" id="DejaVuSans-97"/>
     <path d="M 41.109375 46.296875 
Q 39.59375 47.171875 37.8125 47.578125 
Q 36.03125 48 33.890625 48 
Q 26.265625 48 22.1875 43.046875 
Q 18.109375 38.09375 18.109375 28.8125 
L 18.109375 0 
L 9.078125 0 
L 9.078125 54.6875 
L 18.109375 54.6875 
L 18.109375 46.1875 
Q 20.953125 51.171875 25.484375 53.578125 
Q 30.03125 56 36.53125 56 
Q 37.453125 56 38.578125 55.875 
Q 39.703125 55.765625 41.0625 55.515625 
z
" id="DejaVuSans-114"/>
     <path d="M 45.40625 27.984375 
Q 45.40625 37.75 41.375 43.109375 
Q 37.359375 48.484375 30.078125 48.484375 
Q 22.859375 48.484375 18.828125 43.109375 
Q 14.796875 37.75 14.796875 27.984375 
Q 14.796875 18.265625 18.828125 12.890625 
Q 22.859375 7.515625 30.078125 7.515625 
Q 37.359375 7.515625 41.375 12.890625 
Q 45.40625 18.265625 45.40625 27.984375 
z
M 54.390625 6.78125 
Q 54.390625 -7.171875 48.1875 -13.984375 
Q 42 -20.796875 29.203125 -20.796875 
Q 24.46875 -20.796875 20.265625 -20.09375 
Q 16.0625 -19.390625 12.109375 -17.921875 
L 12.109375 -9.1875 
Q 16.0625 -11.328125 19.921875 -12.34375 
Q 23.78125 -13.375 27.78125 -13.375 
Q 36.625 -13.375 41.015625 -8.765625 
Q 45.40625 -4.15625 45.40625 5.171875 
L 45.40625 9.625 
Q 42.625 4.78125 38.28125 2.390625 
Q 33.9375 0 27.875 0 
Q 17.828125 0 11.671875 7.65625 
Q 5.515625 15.328125 5.515625 27.984375 
Q 5.515625 40.671875 11.671875 48.328125 
Q 17.828125 56 27.875 56 
Q 33.9375 56 38.28125 53.609375 
Q 42.625 51.21875 45.40625 46.390625 
L 45.40625 54.6875 
L 54.390625 54.6875 
z
" id="DejaVuSans-103"/>
     <path d="M 56.203125 29.59375 
L 56.203125 25.203125 
L 14.890625 25.203125 
Q 15.484375 15.921875 20.484375 11.0625 
Q 25.484375 6.203125 34.421875 6.203125 
Q 39.59375 6.203125 44.453125 7.46875 
Q 49.3125 8.734375 54.109375 11.28125 
L 54.109375 2.78125 
Q 49.265625 0.734375 44.1875 -0.34375 
Q 39.109375 -1.421875 33.890625 -1.421875 
Q 20.796875 -1.421875 13.15625 6.1875 
Q 5.515625 13.8125 5.515625 26.8125 
Q 5.515625 40.234375 12.765625 48.109375 
Q 20.015625 56 32.328125 56 
Q 43.359375 56 49.78125 48.890625 
Q 56.203125 41.796875 56.203125 29.59375 
z
M 47.21875 32.234375 
Q 47.125 39.59375 43.09375 43.984375 
Q 39.0625 48.390625 32.421875 48.390625 
Q 24.90625 48.390625 20.390625 44.140625 
Q 15.875 39.890625 15.1875 32.171875 
z
" id="DejaVuSans-101"/>
     <path d="M 18.3125 70.21875 
L 18.3125 54.6875 
L 36.8125 54.6875 
L 36.8125 47.703125 
L 18.3125 47.703125 
L 18.3125 18.015625 
Q 18.3125 11.328125 20.140625 9.421875 
Q 21.96875 7.515625 27.59375 7.515625 
L 36.8125 7.515625 
L 36.8125 0 
L 27.59375 0 
Q 17.1875 0 13.234375 3.875 
Q 9.28125 7.765625 9.28125 18.015625 
L 9.28125 47.703125 
L 2.6875 47.703125 
L 2.6875 54.6875 
L 9.28125 54.6875 
L 9.28125 70.21875 
z
" id="DejaVuSans-116"/>
    </defs>
    <g transform="translate(388.332547 151.182225)rotate(-87.447788)scale(0.1 -0.1)">
     <use xlink:href="#DejaVuSans-84"/>
     <use x="44.583984" xlink:href="#DejaVuSans-97"/>
     <use x="105.863281" xlink:href="#DejaVuSans-114"/>
     <use x="145.226562" xlink:href="#DejaVuSans-103"/>
     <use x="208.703125" xlink:href="#DejaVuSans-101"/>
     <use x="270.226562" xlink:href="#DejaVuSans-116"/>
     <use x="309.435547" xlink:href="#DejaVuSans-115"/>
    </g>
   </g>
   <g id="Line3DCollection_3">
    <path d="M 350.800417 198.743743 
L 165.212173 186.251545 
L 123.033597 262.348468 
" style="fill:none;stroke:#b0b0b0;stroke-width:0.8;"/>
    <path d="M 351.887027 174.366081 
L 164.473414 162.110357 
L 121.779053 236.82157 
" style="fill:none;stroke:#b0b0b0;stroke-width:0.8;"/>
    <path d="M 352.995355 149.501165 
L 163.720108 137.493803 
L 120.497534 210.745824 
" style="fill:none;stroke:#b0b0b0;stroke-width:0.8;"/>
    <path d="M 354.12606 124.134241 
L 162.951821 112.387704 
L 119.188163 184.103338 
" style="fill:none;stroke:#b0b0b0;stroke-width:0.8;"/>
    <path d="M 355.279826 98.249949 
L 162.168101 86.777309 
L 117.850021 156.875432 
" style="fill:none;stroke:#b0b0b0;stroke-width:0.8;"/>
   </g>
   <g id="xtick_19">
    <g id="line2d_22">
     <path d="M 349.293961 198.642341 
L 353.814399 198.946618 
" style="fill:none;stroke:#000000;stroke-linecap:square;stroke-width:0.8;"/>
    </g>
    <g id="text_22">
     <!-- −40 -->
     <defs>
      <path d="M 37.796875 64.3125 
L 12.890625 25.390625 
L 37.796875 25.390625 
z
M 35.203125 72.90625 
L 47.609375 72.90625 
L 47.609375 25.390625 
L 58.015625 25.390625 
L 58.015625 17.1875 
L 47.609375 17.1875 
L 47.609375 0 
L 37.796875 0 
L 37.796875 17.1875 
L 4.890625 17.1875 
L 4.890625 26.703125 
z
" id="DejaVuSans-52"/>
     </defs>
     <g transform="translate(355.200265 202.166726)scale(0.1 -0.1)">
      <use xlink:href="#DejaVuSans-8722"/>
      <use x="83.789062" xlink:href="#DejaVuSans-52"/>
      <use x="147.412109" xlink:href="#DejaVuSans-48"/>
     </g>
    </g>
   </g>
   <g id="xtick_20">
    <g id="line2d_23">
     <path d="M 350.365536 174.266585 
L 354.931098 174.565145 
" style="fill:none;stroke:#000000;stroke-linecap:square;stroke-width:0.8;"/>
    </g>
    <g id="text_23">
     <!-- −20 -->
     <g transform="translate(356.428761 177.867711)scale(0.1 -0.1)">
      <use xlink:href="#DejaVuSans-8722"/>
      <use x="83.789062" xlink:href="#DejaVuSans-50"/>
      <use x="147.412109" xlink:href="#DejaVuSans-48"/>
     </g>
    </g>
   </g>
   <g id="xtick_21">
    <g id="line2d_24">
     <path d="M 351.458527 149.403671 
L 356.070123 149.696224 
" style="fill:none;stroke:#000000;stroke-linecap:square;stroke-width:0.8;"/>
    </g>
    <g id="text_24">
     <!-- 0 -->
     <g transform="translate(365.052783 153.085425)scale(0.1 -0.1)">
      <use xlink:href="#DejaVuSans-48"/>
     </g>
    </g>
   </g>
   <g id="xtick_22">
    <g id="line2d_25">
     <path d="M 352.573583 124.03885 
L 357.23215 124.325092 
" style="fill:none;stroke:#000000;stroke-linecap:square;stroke-width:0.8;"/>
    </g>
    <g id="text_25">
     <!-- 20 -->
     <g transform="translate(363.149631 127.805305)scale(0.1 -0.1)">
      <use xlink:href="#DejaVuSans-50"/>
      <use x="63.623047" xlink:href="#DejaVuSans-48"/>
     </g>
    </g>
   </g>
   <g id="xtick_23">
    <g id="line2d_26">
     <path d="M 353.711377 98.156768 
L 358.417882 98.436378 
" style="fill:none;stroke:#000000;stroke-linecap:square;stroke-width:0.8;"/>
    </g>
    <g id="text_26">
     <!-- 40 -->
     <g transform="translate(364.453665 102.012198)scale(0.1 -0.1)">
      <use xlink:href="#DejaVuSans-52"/>
      <use x="63.623047" xlink:href="#DejaVuSans-48"/>
     </g>
    </g>
   </g>
  </g>
  <g id="axes_1">
   <g id="line2d_27">
    <path clip-path="url(#p21bd353f7c)" d="M 307.70453 156.845093 
L 301.017253 222.183584 
L 291.084357 137.840628 
L 180.199489 171.861243 
L 266.540145 163.167181 
L 255.328949 115.06453 
L 225.873068 177.61644 
L 308.914056 196.559115 
L 190.076237 98.714438 
L 208.534289 231.857541 
L 184.802056 186.978487 
L 256.99335 165.379366 
L 174.163017 82.117641 
L 194.484987 133.404331 
L 200.845611 120.117596 
L 188.350235 167.235519 
L 269.985948 252.98964 
L 283.618986 215.007176 
L 173.696111 138.245333 
L 226.631347 168.147729 
L 153.22939 189.166655 
L 201.910495 217.337777 
L 186.173766 201.46262 
L 182.82327 197.232397 
L 204.994943 173.96925 
L 278.155081 238.201268 
L 260.340437 233.940368 
L 209.092892 172.699609 
L 245.365451 181.999984 
L 292.893336 197.754807 
L 237.107139 135.335161 
L 238.036705 165.422589 
L 288.224478 237.707277 
L 230.316846 179.630287 
L 174.937733 157.169017 
L 247.990547 122.011837 
L 265.015983 221.353288 
L 289.629539 144.498347 
L 165.311528 153.455067 
L 213.674776 131.756392 
L 293.215502 253.466186 
L 224.514277 142.055301 
L 185.314744 183.033636 
L 269.97307 169.778313 
L 250.119126 144.710086 
L 190.669149 172.14355 
L 246.006952 154.936511 
L 193.126409 94.707737 
L 281.096398 210.790562 
L 325.949653 171.82684 
L 324.79409 215.464141 
L 279.980812 130.783397 
L 278.084486 157.33433 
L 224.274586 160.030024 
L 303.710588 154.357572 
L 231.4019 131.914506 
L 174.258146 181.389911 
L 205.787826 211.763679 
L 312.60233 254.06298 
L 226.341785 98.59941 
L 252.363217 204.434026 
L 199.274301 232.000305 
L 227.438613 139.180374 
L 273.125848 216.841235 
L 292.11133 191.171296 
L 272.542302 141.278313 
L 194.706142 141.750904 
L 222.164009 147.320006 
L 173.750229 168.534393 
L 249.467954 190.624736 
L 186.602178 122.029166 
L 159.665772 170.556639 
L 179.300388 155.552972 
L 228.056619 121.143452 
L 261.221899 238.42635 
L 252.211149 231.46031 
L 218.974994 101.223552 
L 304.740442 195.864742 
L 194.969208 171.823939 
L 188.914816 115.395213 
L 246.636986 112.955102 
L 223.585865 165.925574 
L 288.480958 167.970884 
L 278.250403 164.768778 
L 236.873628 242.002083 
L 224.938465 224.086855 
L 175.301803 181.13716 
L 279.747932 146.2601 
L 317.570452 238.010475 
L 245.058786 128.715022 
L 294.469238 241.588657 
L 255.010997 208.057633 
L 210.136805 131.834961 
L 243.986154 109.317845 
L 180.197987 136.23608 
L 222.634847 170.912582 
L 276.292208 245.818524 
L 312.066291 185.81365 
L 279.997821 193.489788 
L 158.153755 212.398709 
L 216.646235 186.628254 
L 194.76908 125.129348 
L 177.749723 218.517144 
L 266.871133 138.695046 
L 152.334694 185.036933 
L 197.376879 147.983707 
L 332.052507 158.317067 
L 328.824744 132.185508 
L 305.340303 161.655688 
L 217.941604 128.829733 
L 205.830938 153.053987 
L 226.715096 123.688597 
L 298.958398 229.62539 
L 318.176035 242.022904 
L 144.119207 188.313467 
L 258.86515 117.69895 
L 270.598514 214.658717 
L 273.419664 118.527441 
L 173.468524 153.455296 
L 282.996447 228.080291 
L 290.263666 162.368395 
L 231.690323 188.354218 
L 305.631808 204.067124 
L 261.402008 242.813513 
L 230.91157 204.908287 
L 259.732786 207.872519 
L 246.461595 114.205073 
L 159.261617 133.091992 
L 216.925665 178.895909 
L 209.786299 144.731863 
L 161.322093 120.200952 
L 187.053129 223.805454 
L 320.617639 156.384445 
L 323.106045 195.829153 
L 154.176141 158.062269 
L 334.11785 145.016149 
L 329.260315 134.409948 
L 245.850783 193.585915 
L 237.333181 110.489427 
L 198.215005 221.555671 
L 245.490848 146.896503 
L 208.348609 114.480893 
L 188.567839 144.133129 
L 280.412265 241.841045 
L 248.835167 202.072578 
L 215.945005 96.970143 
L 314.066427 128.418144 
L 226.798471 242.375147 
L 186.589599 173.659209 
L 291.553613 246.132886 
L 300.587906 210.69035 
L 339.48449 135.218503 
L 318.802938 160.865957 
L 268.559477 115.844939 
L 233.621743 221.496198 
L 210.870042 132.905243 
L 311.339272 233.222369 
L 228.780007 217.008001 
L 254.205012 253.531981 
L 172.770728 126.508387 
L 274.580983 111.21873 
L 187.847164 132.71006 
L 278.004712 130.170821 
L 202.56727 147.022683 
L 194.56696 196.792562 
L 225.206439 139.870851 
L 203.142938 101.330873 
L 222.958785 151.276038 
L 178.716461 226.75405 
L 161.965155 143.21335 
L 204.999014 104.334756 
L 319.362544 220.190911 
L 177.754858 166.334302 
L 294.278274 212.621668 
L 252.625277 203.12172 
L 292.963658 250.660416 
L 186.639203 204.145594 
L 204.064782 230.606506 
L 236.904991 238.234703 
L 204.794279 122.963603 
L 306.992837 159.350885 
L 246.024899 251.013958 
L 308.860451 140.333316 
L 302.660541 230.955998 
L 249.423664 170.093312 
L 297.418163 121.165295 
L 270.015969 158.870229 
L 160.484791 130.293754 
L 221.625994 196.468748 
L 239.162625 160.954006 
L 156.770508 176.216991 
L 248.036069 132.16454 
L 156.337877 184.868481 
L 242.371459 209.274814 
L 155.265547 137.086599 
L 263.600782 222.964201 
L 228.047657 201.612558 
L 235.13256 125.901551 
L 311.361259 213.650671 
L 269.123585 205.720021 
L 314.009983 258.1325 
L 236.820232 146.803045 
L 205.138914 134.178384 
L 252.035366 137.775358 
L 209.110081 88.773045 
L 225.466947 200.609144 
L 303.658906 231.384791 
L 229.340223 142.984518 
L 164.533793 176.334093 
L 322.636421 190.817238 
L 271.308796 259.296457 
L 249.872651 124.055173 
L 275.485952 208.030643 
L 255.898196 209.820081 
L 268.780241 235.76469 
L 175.462512 167.57448 
L 173.481834 180.866009 
L 176.47265 77.553601 
L 244.999333 223.851394 
L 224.150288 162.601201 
L 210.114439 87.813821 
L 164.200396 176.58774 
L 252.788832 118.278321 
L 319.673757 147.689558 
L 250.997871 198.764654 
L 265.394158 148.31044 
L 229.812519 246.00594 
L 302.26383 181.056078 
L 308.064801 237.892174 
L 221.773821 156.557034 
L 292.394499 252.938045 
L 194.941074 150.032226 
L 267.472855 182.336701 
L 277.389558 210.706291 
L 251.230717 154.181587 
L 314.697861 133.154184 
L 269.036209 221.574099 
L 210.553601 94.294357 
L 156.458267 184.257439 
L 150.42513 210.847021 
L 323.142564 208.295601 
L 226.01384 132.272683 
L 318.763316 234.182748 
L 278.431149 152.435404 
L 195.673423 164.583233 
L 192.394885 104.369725 
L 276.480777 125.48833 
L 179.775174 87.254227 
L 150.069368 189.632234 
L 171.436556 91.444177 
L 159.260114 154.186392 
L 251.552719 221.583365 
L 242.339891 136.126541 
L 167.95758 213.258499 
L 255.338843 119.77791 
L 335.938146 152.805182 
L 196.069617 128.413028 
L 180.068961 219.359144 
L 269.802803 243.483917 
L 254.982744 118.085824 
L 178.635833 188.224235 
L 259.946216 157.779215 
L 173.305518 77.164849 
L 251.174607 170.066998 
L 170.490115 143.090502 
L 290.285129 171.002894 
L 233.920048 187.731882 
L 262.355544 155.027201 
L 221.76637 144.560999 
L 288.006998 233.662617 
L 196.906069 185.106862 
L 313.825751 198.610052 
L 290.510675 159.533511 
L 250.772065 202.493486 
L 236.885267 239.528425 
L 265.867816 166.488015 
L 275.049938 255.847604 
L 305.087922 166.630117 
L 309.523981 157.094148 
L 246.341843 197.001311 
L 151.566374 198.516746 
L 254.195879 240.810932 
L 296.78093 185.750525 
L 205.653024 91.476205 
L 292.992409 213.975662 
L 161.649949 212.484125 
L 194.915892 170.934034 
L 334.318983 160.662245 
L 299.206662 255.822842 
L 287.485687 215.290783 
L 198.905246 134.972214 
L 234.016438 112.725336 
L 272.235672 196.35869 
L 306.085844 160.659502 
L 199.600656 151.395381 
L 241.342405 228.28525 
L 174.183768 141.380018 
L 281.990228 141.757368 
L 293.387608 186.527959 
L 253.288534 106.745847 
L 263.143607 242.769704 
L 285.82828 256.900336 
L 280.329928 123.058951 
L 227.85375 227.723144 
L 204.821213 163.58452 
L 184.275458 223.845524 
L 296.857124 206.524337 
L 190.061207 131.350888 
L 226.36741 118.684071 
L 231.511888 116.335376 
L 270.117812 112.247284 
L 309.449917 152.752223 
L 254.966097 132.11509 
L 183.007828 121.48526 
L 303.096928 140.610057 
L 219.593509 123.27223 
L 189.701061 138.030302 
L 182.866986 138.290231 
L 202.600633 228.340816 
L 174.806937 137.212182 
L 203.994034 89.392874 
L 308.926616 147.956513 
L 330.70323 184.945586 
L 298.71776 257.509313 
L 203.451044 88.963227 
L 165.558367 171.04384 
L 179.552471 170.964082 
L 172.669733 147.685316 
L 169.844547 148.186034 
L 195.803591 83.519816 
L 322.636842 144.074833 
L 168.016664 105.880695 
L 336.133614 146.446995 
L 328.795017 173.939389 
L 268.298066 196.944311 
L 308.510725 268.262161 
L 317.785428 206.672069 
L 251.123905 184.733574 
L 227.915392 199.198357 
L 165.939904 166.267149 
L 282.247158 207.709078 
L 222.080591 231.640592 
L 233.678023 143.10013 
L 186.879796 112.411675 
L 288.931888 161.217894 
L 307.17111 271.156901 
L 162.992795 171.85126 
L 161.858546 195.345416 
L 235.863301 154.339743 
L 329.384106 155.508509 
L 286.450469 215.89571 
L 174.415506 165.599202 
L 250.876422 242.990399 
L 207.357319 209.27329 
L 252.098111 153.411284 
L 263.650506 120.643817 
L 259.939764 230.592127 
L 333.303712 156.38383 
L 211.01388 228.626324 
L 322.081335 171.961964 
L 255.199613 156.877322 
L 189.542263 166.064092 
L 222.072813 148.308697 
L 203.110656 102.705747 
L 224.186926 166.232756 
L 250.235063 203.627319 
L 156.134714 141.124958 
L 261.113416 131.122957 
L 330.048902 137.71927 
L 240.565049 177.237201 
L 175.375017 120.198117 
L 239.730252 235.388952 
L 273.00254 171.914228 
L 172.847265 175.690317 
L 261.735342 243.247921 
L 214.136062 176.371775 
L 254.219024 106.295314 
L 248.448561 107.227655 
L 264.857297 131.728463 
L 264.301548 178.030418 
L 238.107974 103.428809 
L 270.780511 136.86071 
L 186.807097 132.633229 
L 252.585119 207.127269 
L 293.971841 255.497444 
L 289.431212 158.29464 
L 182.457896 127.199787 
L 192.744097 176.74581 
L 292.223845 163.381587 
L 214.587343 240.068593 
L 210.002736 169.330592 
L 185.383055 199.873764 
L 313.066428 145.600815 
L 186.880633 194.198778 
L 323.695404 138.0903 
L 249.24334 208.321103 
L 196.500059 109.673966 
L 260.874807 227.052704 
L 155.200844 142.579947 
L 264.974993 147.937773 
L 146.086519 177.796584 
L 271.775285 131.589429 
L 170.184949 146.499794 
L 198.465451 214.518271 
L 215.886187 205.811539 
L 191.612439 203.223904 
L 177.685105 133.322928 
L 218.414093 221.901787 
L 206.819167 101.566413 
L 238.767149 116.221943 
L 196.597926 81.736645 
L 206.623699 134.15778 
L 333.936261 145.147515 
L 167.690198 190.709986 
L 290.270945 135.354024 
L 190.84496 156.615722 
L 325.011375 136.144928 
L 177.477676 199.130125 
L 201.869988 176.404331 
L 167.471372 141.490585 
L 150.39069 213.61535 
L 309.208355 145.471749 
L 188.196953 111.381699 
L 224.165964 93.624407 
L 260.679236 180.995404 
L 160.542731 205.260242 
L 165.809823 162.497036 
L 291.085535 236.047211 
L 180.78152 122.076837 
L 181.213143 226.766588 
L 256.71914 123.628467 
L 308.828433 220.732117 
L 329.054162 131.012312 
L 174.541623 211.67756 
L 292.208574 139.2124 
L 257.146023 182.932476 
L 185.451064 211.875473 
L 179.078651 110.343518 
L 249.986785 224.819544 
L 217.683765 108.053638 
L 243.662297 114.201472 
L 217.161886 89.782275 
L 207.159153 171.310162 
L 278.971027 189.698878 
L 232.224041 238.078335 
L 295.349893 167.360282 
L 308.121285 252.731689 
L 194.974296 132.490686 
L 229.29153 204.948819 
L 278.373334 135.77633 
L 162.159062 117.373383 
L 168.601536 113.880873 
L 206.915903 232.805852 
L 242.043379 110.736003 
L 174.297278 197.013403 
L 286.670185 237.944344 
L 301.042319 173.010501 
L 270.020911 155.701043 
L 212.027673 184.22945 
L 322.905582 208.430114 
L 174.688183 122.819664 
L 302.014957 187.345378 
L 185.181487 205.624091 
L 188.602997 213.745573 
L 170.046974 121.974609 
L 299.512256 259.91045 
L 273.049648 223.096603 
L 292.65438 223.861164 
L 242.902028 243.113922 
L 297.173867 180.441426 
L 316.936933 242.286231 
L 218.366027 212.333483 
L 259.173548 156.159271 
L 207.739443 205.678424 
L 178.764252 125.180254 
L 206.857837 124.585006 
L 235.681191 138.827874 
L 245.361363 158.584274 
L 304.720751 135.580176 
L 284.504156 248.712834 
L 276.010024 175.646259 
L 173.536226 189.737308 
L 278.026751 120.723131 
L 274.579397 114.969353 
L 203.851208 112.339631 
L 224.600755 124.486534 
L 185.350606 129.229079 
L 187.92888 159.33314 
L 221.346433 114.985298 
L 184.381925 82.934861 
L 174.015261 83.426411 
L 307.73468 193.284424 
L 197.381989 99.623828 
L 264.768933 137.057148 
L 241.378231 196.950349 
L 200.105875 169.539158 
L 306.930786 166.514107 
L 256.290062 216.093663 
L 188.12171 174.8308 
L 205.395896 115.901506 
L 189.382416 140.560929 
L 220.725934 239.756542 
L 278.702247 150.056513 
L 241.720647 99.876572 
L 309.617044 172.168576 
L 173.575545 131.261827 
L 277.730354 200.792881 
L 211.564185 162.475361 
L 333.560828 136.655292 
L 207.863683 163.053798 
L 170.070352 150.263584 
L 299.500945 264.850856 
L 296.341371 270.988701 
L 258.729961 138.298593 
L 237.175112 105.225844 
L 233.948663 170.311167 
L 270.501457 137.426957 
L 210.724338 121.649892 
L 232.277148 180.640905 
L 324.831827 187.620219 
L 242.044246 208.010518 
L 317.797944 181.37401 
L 253.070504 151.036683 
L 291.514774 174.693437 
L 173.423194 181.002343 
L 316.021891 215.506525 
L 296.73517 122.525013 
L 248.821599 231.969596 
L 189.888306 152.588085 
L 197.787477 130.131266 
L 284.910691 159.509282 
L 211.675326 104.288591 
L 225.511074 104.98379 
L 266.899929 203.077191 
L 223.482429 154.273475 
L 202.951628 174.328814 
L 225.394484 147.814961 
L 248.125858 232.785455 
L 150.339587 181.572502 
L 172.43185 94.346252 
L 312.403242 219.843013 
L 202.507753 120.957803 
L 189.068198 126.028666 
L 179.596393 200.165888 
L 294.026446 173.923697 
L 249.622227 206.97413 
L 272.893618 214.358324 
L 175.304966 169.284957 
L 227.374307 195.518852 
L 315.915448 239.483205 
L 207.003891 208.048402 
L 253.413572 225.853297 
L 281.556573 116.487285 
L 242.561914 161.57131 
L 291.739393 195.639339 
L 312.032063 269.104963 
L 201.518471 226.777607 
L 321.836656 140.343587 
L 285.006549 182.129995 
L 242.417994 149.915967 
L 316.160805 239.320935 
L 306.331562 205.627452 
L 293.216193 127.810291 
L 227.770942 181.365879 
L 328.322318 155.218721 
L 326.100854 204.111778 
L 273.065307 144.635152 
L 182.515319 106.848302 
L 265.429255 138.584757 
L 287.414137 193.531503 
L 209.776103 169.666439 
L 292.055426 144.36654 
L 236.553891 117.84586 
L 297.73548 216.606474 
L 189.791406 159.728736 
L 209.99743 170.684741 
L 322.862499 186.004213 
L 180.759173 118.407523 
L 214.722827 190.775251 
L 184.957616 155.057356 
L 249.177605 251.254559 
L 250.31748 160.144388 
L 299.276873 252.68959 
L 230.912763 206.958835 
L 148.285263 193.515369 
L 241.854938 217.155172 
L 235.304309 214.358746 
L 276.904832 192.446702 
L 243.610664 185.277988 
L 279.315618 223.429505 
L 236.138729 102.194187 
L 238.635662 97.841106 
L 301.067657 131.129932 
L 211.796534 106.430759 
L 213.574787 185.258851 
L 264.193605 158.531578 
L 233.628935 177.728556 
L 174.08735 187.370254 
L 297.356564 263.940093 
L 236.869075 166.727842 
L 173.074262 77.912821 
L 233.4964 194.767861 
L 312.468647 253.663354 
L 247.296404 244.295253 
L 242.471681 218.170409 
L 219.653678 205.654339 
L 199.368442 180.973745 
L 145.978839 189.863804 
L 248.801809 245.585903 
L 281.866167 149.937406 
L 247.307258 238.041602 
L 206.864192 200.572463 
L 243.021645 115.490404 
L 246.789573 196.288284 
L 318.476387 169.172499 
L 307.136257 181.646098 
L 273.581694 188.952255 
L 321.501923 212.792219 
L 187.848358 160.583137 
L 233.880524 151.874506 
L 206.604565 154.776782 
L 268.794665 218.444558 
L 180.633488 207.661545 
L 148.673699 208.857959 
L 297.328046 127.391537 
L 320.941866 207.039426 
L 291.603944 231.996622 
L 290.163766 253.139865 
L 184.324388 132.560333 
L 312.804153 241.349544 
L 202.443924 163.377266 
L 320.293409 189.405186 
L 328.459377 139.388281 
L 263.372724 126.732204 
L 172.153468 157.177563 
L 258.65342 155.683639 
L 267.446299 179.584148 
L 210.280693 96.454158 
L 221.790283 127.85047 
L 149.925327 194.532578 
L 303.894021 141.548549 
L 169.209392 134.08384 
L 185.327064 184.541594 
L 196.184503 150.112704 
L 253.714944 121.784337 
L 149.455556 185.698081 
L 167.985515 165.811699 
L 262.449682 223.962707 
L 171.771314 222.183512 
L 221.389185 209.618771 
L 265.415446 218.690817 
L 195.747657 224.056893 
L 281.566424 261.681004 
L 230.427589 122.250848 
L 243.488586 129.726009 
L 299.708444 224.965927 
L 193.130197 99.873847 
L 161.368971 170.589981 
L 236.930271 115.086947 
L 265.437902 186.559115 
L 270.399702 161.055445 
L 283.255187 251.491974 
L 284.539168 179.250891 
L 185.233465 194.422834 
L 226.421754 154.660203 
L 220.51619 143.21908 
L 309.632053 182.328005 
L 291.249255 246.081492 
L 176.095131 103.718134 
L 180.507801 197.54987 
L 171.550509 122.502357 
L 244.097736 99.233619 
L 302.048581 121.697634 
L 218.776299 94.180946 
L 293.748676 174.07829 
L 235.714498 180.689268 
L 258.38298 237.984713 
L 180.092607 119.576564 
L 310.420066 131.209674 
L 283.243421 127.446883 
L 226.283918 139.756972 
L 189.305005 143.500398 
L 300.01718 211.250697 
L 196.590173 84.995835 
L 268.369463 250.839049 
L 267.115083 226.14736 
L 253.265283 177.424669 
L 172.246093 144.46783 
L 207.003668 105.762887 
L 286.895451 191.115737 
L 297.55346 188.920543 
L 273.330136 135.119386 
L 147.266304 206.364342 
L 200.412385 150.814002 
L 209.880627 159.948545 
L 203.543584 143.424584 
L 205.955542 120.206652 
L 238.702626 154.567059 
L 178.005635 178.157826 
L 186.045014 101.341943 
L 269.449991 206.498617 
L 260.87254 115.185095 
L 268.456763 235.949831 
L 197.943025 142.423859 
L 292.091411 200.884328 
L 174.492738 164.830502 
L 250.206209 128.655629 
L 258.305631 138.381875 
L 152.612817 209.252773 
L 264.95912 234.453498 
L 332.546316 133.697871 
L 201.176849 125.438741 
L 314.130001 247.66936 
L 318.349366 164.738759 
L 165.711022 140.414641 
L 186.802001 212.136565 
L 208.201339 137.88064 
L 315.214539 262.917622 
L 187.664118 162.467947 
L 290.092684 240.385477 
L 256.368696 138.513882 
L 282.286446 182.685102 
L 189.008938 207.45368 
L 161.553008 128.849457 
L 218.542505 147.042254 
L 257.651913 122.309429 
L 303.840499 210.048399 
L 171.329917 212.693408 
L 232.292306 176.085721 
L 315.270685 170.773174 
L 293.920656 190.623094 
L 315.39111 188.664671 
L 306.585462 121.045263 
L 172.091006 95.691469 
L 208.460938 188.976429 
L 219.384128 156.256028 
L 242.853316 232.220899 
L 213.068509 206.480919 
L 240.207628 231.061131 
L 168.897131 221.848526 
L 203.899515 119.15768 
L 232.138731 127.593245 
L 245.652008 119.931371 
L 229.777738 195.924544 
L 243.968909 207.349772 
L 243.605691 159.055422 
L 203.089831 160.481453 
L 262.264098 196.968822 
L 176.727781 121.024316 
L 237.805365 211.057307 
L 273.425075 122.992447 
L 261.650682 109.012647 
L 264.455587 156.18 
L 220.665603 120.287341 
L 260.093206 250.71442 
L 199.746744 167.096404 
L 176.489688 84.615588 
L 186.79915 78.604851 
L 324.176138 184.894976 
L 235.13354 161.174635 
L 161.12286 213.074669 
L 243.98199 213.592171 
L 205.517156 207.332999 
L 221.041784 157.525537 
L 209.075565 121.868724 
L 217.7478 128.093615 
L 272.131133 108.147543 
L 317.309695 175.938597 
L 249.542236 106.66711 
L 309.81057 224.233719 
L 292.46251 262.101154 
L 261.652985 150.071812 
L 159.936721 201.7064 
L 184.849644 156.225058 
L 224.850948 186.788234 
L 232.596487 184.342739 
L 174.542544 161.882478 
L 297.15071 239.191563 
L 229.743003 106.668575 
L 291.321211 215.85863 
L 278.72359 198.049544 
L 227.641246 228.54001 
L 154.183974 177.391971 
L 186.683579 220.834245 
L 152.159266 204.272012 
L 203.939399 168.012852 
L 172.859429 220.568668 
L 191.671629 196.787899 
L 246.539491 169.809412 
L 305.135405 131.615829 
L 236.881784 155.514467 
L 174.342084 125.340148 
L 168.206316 222.559333 
L 225.427229 193.139624 
L 229.46133 143.149032 
L 185.350008 222.024991 
L 235.107112 153.907408 
L 213.559913 142.768294 
L 167.159187 102.62156 
L 287.162959 228.374749 
L 313.377998 164.383567 
L 192.970885 91.72274 
L 290.830796 148.431787 
L 279.951896 140.514123 
L 279.18221 251.353209 
L 187.927272 118.233451 
L 302.115715 150.528873 
L 146.785916 212.667292 
L 263.254271 166.232436 
L 249.62743 106.474963 
L 288.084038 173.158108 
L 147.278653 199.469736 
L 249.381813 188.427024 
L 321.523433 175.152474 
L 285.92964 154.016459 
L 209.253629 161.835123 
L 308.092109 177.739736 
L 299.75909 126.108866 
L 290.55499 126.178948 
L 149.708422 178.81041 
L 316.718708 131.402781 
L 260.623111 132.504982 
L 192.224297 165.810289 
L 282.589017 210.510423 
L 278.755771 190.01077 
L 251.595171 125.868766 
L 180.855867 173.171933 
L 270.319186 213.626224 
L 281.523932 136.752803 
L 179.928467 109.051778 
L 304.041709 211.036144 
L 321.008053 197.005814 
L 189.568049 112.492155 
L 210.826545 99.682741 
L 281.314582 205.341751 
L 255.605649 205.513578 
L 322.068653 148.027343 
L 270.363422 126.336816 
L 284.791905 234.538766 
L 242.506235 160.314422 
L 271.875847 113.118494 
L 248.822953 230.711179 
L 257.980818 142.314251 
L 189.394004 214.694398 
L 246.299282 193.957149 
L 231.894456 212.830498 
L 207.688146 164.969584 
L 266.71299 128.345067 
L 206.011025 109.453491 
L 307.080929 159.30609 
L 232.229335 243.552755 
L 248.780866 110.241193 
L 224.623755 100.149502 
L 166.900023 201.745206 
L 206.096319 220.528694 
L 331.340965 144.310734 
L 247.067439 172.050567 
L 285.635306 263.171066 
L 177.859559 121.259058 
L 272.269796 230.111639 
L 172.444512 196.002562 
L 224.284379 143.332801 
L 228.508553 171.978577 
L 209.993527 137.424535 
L 281.37693 189.779819 
L 310.583814 203.831413 
L 203.844678 112.984446 
L 206.792088 87.080291 
L 195.006771 183.906655 
L 220.354858 128.560823 
L 179.183893 106.450705 
L 155.008965 208.32253 
L 162.93503 183.882386 
L 303.848946 251.360806 
L 230.551165 236.360448 
L 203.225304 209.642741 
L 250.395362 245.695173 
L 202.511532 86.769704 
L 233.059211 202.662385 
L 257.356128 135.37485 
L 325.42327 173.61377 
L 220.903814 180.907707 
L 201.035606 118.351802 
L 315.325834 182.319461 
L 221.499054 161.597188 
L 302.176001 259.967 
L 247.144706 160.26403 
L 229.598847 224.748888 
L 217.377977 114.582482 
L 214.234819 158.563007 
L 198.4757 205.642505 
L 192.566387 168.269236 
L 309.191675 204.348238 
L 185.047429 153.651137 
L 245.629492 248.930505 
L 183.853126 215.58584 
L 329.638903 139.746091 
L 327.042819 180.611525 
L 246.218133 175.746603 
L 204.66942 189.436987 
L 283.865359 140.309591 
L 201.340215 223.399035 
L 185.921968 137.856948 
L 319.58364 200.919863 
L 233.70678 213.288658 
L 249.110927 199.793884 
L 257.38967 212.976403 
L 222.057702 145.472304 
L 313.079962 249.033773 
L 260.481241 209.650654 
L 176.615795 93.190828 
L 293.545564 253.084586 
L 244.226525 181.713078 
L 262.303862 118.637627 
L 270.127238 135.378726 
L 175.029095 124.70499 
L 156.334013 133.617922 
L 227.259729 174.973383 
L 189.423134 137.751649 
L 180.16286 123.60681 
L 182.955497 205.48655 
L 227.271298 213.39865 
L 154.890026 161.626527 
L 282.643087 143.58809 
L 186.306343 165.215532 
L 192.295572 174.932951 
L 143.876966 209.684797 
L 232.783445 226.232157 
L 190.843694 207.215544 
L 294.938608 168.140144 
L 185.058204 166.090198 
L 175.462526 75.647209 
L 172.519675 73.512957 
L 176.637399 215.756845 
L 252.533701 111.707507 
L 161.126795 152.028117 
L 281.595499 166.296846 
L 177.818642 186.394877 
L 199.288302 165.073674 
L 274.507984 245.134593 
L 257.434967 201.130817 
L 318.727751 155.862292 
L 141.238505 211.739255 
L 206.126465 230.024156 
L 324.408621 148.227608 
L 246.444061 125.570435 
L 202.347104 213.486873 
L 187.083429 130.630979 
L 288.733571 180.147854 
L 203.371759 157.479703 
L 194.073803 180.908342 
L 252.339888 192.171762 
L 247.047272 124.189545 
L 159.684473 147.764191 
L 235.558459 201.421549 
L 242.342076 246.540064 
L 152.184543 214.956748 
L 318.728684 138.461238 
L 214.252921 220.497373 
L 166.790619 119.363273 
L 325.642972 161.25191 
L 155.802024 162.42748 
L 290.734259 175.063089 
L 315.137965 197.612972 
L 320.506375 235.288252 
L 178.690333 91.309909 
L 181.221741 122.791171 
L 231.087205 96.84307 
L 329.445432 167.383338 
L 246.555801 111.23484 
L 297.884895 165.427628 
L 290.128356 164.222169 
L 199.156772 119.975481 
L 260.014778 145.871476 
L 293.162586 166.511413 
L 226.389181 233.114562 
L 173.411811 197.356606 
L 265.990198 169.661448 
L 195.770712 85.654229 
L 286.793693 198.209802 
L 247.18851 169.931421 
L 326.957501 167.805648 
L 235.544308 172.41253 
L 197.041224 201.713211 
L 238.944475 117.546937 
L 307.740424 262.239474 
L 222.731353 179.118425 
L 209.252036 181.340697 
L 175.687529 194.317996 
L 333.475844 149.924588 
L 223.273385 203.629545 
L 172.954112 156.185751 
L 184.034143 90.677052 
L 219.77308 131.262217 
L 215.667216 225.065953 
L 302.266217 202.438246 
L 257.743617 139.975666 
L 217.23793 148.376433 
L 223.828571 237.155845 
L 318.79394 181.508913 
L 318.79394 181.508913 
" style="fill:none;stroke:#1f77b4;stroke-linecap:square;stroke-width:1.5;"/>
   </g>
  </g>
 </g>
 <defs>
  <clipPath id="p21bd353f7c">
   <rect height="266.112" width="357.12" x="57.6" y="41.472"/>
  </clipPath>
 </defs>
</svg>
